<?xml version="1.0" standalone="no"?>
<!DOCTYPE svg PUBLIC "-//W3C//DTD SVG 1.1//EN" "http://www.w3.org/Graphics/SVG/1.1/DTD/svg11.dtd" >
<svg>
<metadata>
Created by FontForge 20090622 at Mon Jul  9 00:58:41 2018
 By deploy user
Copyright (c) 2010 by Jeremy Dooley. All rights reserved.
</metadata>
<defs>
<font id="Sommet" horiz-adv-x="514" >
  <font-face 
    font-family="Sommet"
    font-weight="400"
    font-stretch="normal"
    units-per-em="1000"
    panose-1="2 0 5 5 0 0 0 2 0 4"
    ascent="750"
    descent="-250"
    x-height="530"
    cap-height="719"
    bbox="-101 -366 1244 967"
    underline-thickness="50"
    underline-position="-50"
    unicode-range="U+0020-U+FB06"
  />
<missing-glyph horiz-adv-x="278" 
 />
    <glyph glyph-name="f_f_j" unicode="ffj" horiz-adv-x="764" 
d="M595 -54v516h-162v-462h-84v462h-172v-462h-84v462h-81v68h82v28q0 113 40 156t134 32q37 -3 68 -15l-18 -58q-39 13 -68 13q-46 0 -59.5 -29.5t-13.5 -98.5v-28h172v28q0 113 40.5 156t133.5 32q37 -3 68 -15l-18 -58q-38 13 -67 13q-46 0 -59.5 -29.5t-13.5 -98.5v-28
h245v-584q0 -96 -32.5 -140.5t-101.5 -44.5q-41 0 -104 20l20 70q54 -15 80 -15q29 0 42 24.5t13 85.5z" />
    <glyph glyph-name="f_j" unicode="fj" horiz-adv-x="379" 
d="M177 0h-84v462h-81v68h82v28q0 113 40 156t134 32q37 -3 68 -15l-18 -58q-39 13 -68 13q-46 0 -59.5 -29.5t-13.5 -98.5v-28h241v-584q0 -95 -33 -140t-102 -45q-41 0 -104 20l20 70q54 -15 80 -15q29 0 42 24.5t13 85.5v516h-157v-462z" />
    <glyph glyph-name="ff" unicode="ff" horiz-adv-x="556" 
d="M433 0h-84v462h-172v-462h-84v462h-81v68h82v28q0 113 40 156t134 32q37 -3 68 -15l-18 -58q-39 13 -68 13q-46 0 -59.5 -29.5t-13.5 -98.5v-28h172v28q0 113 40.5 156t133.5 32q37 -3 68 -15l-18 -58q-38 13 -67 13q-46 0 -59.5 -29.5t-13.5 -98.5v-28h114v-68h-114
v-462z" />
    <glyph glyph-name="fi" unicode="fi" horiz-adv-x="515" 
d="M177 0h-84v462h-81v68h82v28q0 113 40 156t134 32q37 -3 68 -15l-18 -58q-39 13 -68 13q-46 0 -59.5 -29.5t-13.5 -98.5v-28h238v-404q0 -64 45 -64q23 0 45 9l14 -65q-45 -16 -78 -16q-110 0 -110 129v343h-154v-462z" />
    <glyph glyph-name="fl" unicode="fl" horiz-adv-x="526" 
d="M516 67l14 -61q-45 -16 -78 -16q-51 0 -81 31t-30 98v343h-164v-462h-84v462h-81v68h82v28q0 113 40 156t134 32q37 -3 68 -15l-18 -58q-39 13 -68 13q-46 0 -59.5 -29.5t-13.5 -98.5v-28h164v215h85v-623q0 -64 45 -64q14 0 45 9z" />
    <glyph glyph-name="ffi" unicode="ffi" horiz-adv-x="783" 
d="M772 71l15 -65q-47 -16 -79 -16q-50 0 -79.5 31t-29.5 98v343h-166v-462h-84v462h-172v-462h-84v462h-81v68h82v28q0 113 40 156t134 32q37 -3 68 -15l-18 -58q-39 13 -68 13q-46 0 -59.5 -29.5t-13.5 -98.5v-28h172v28q0 113 40.5 156t133.5 32q37 -3 68 -15l-18 -58
q-38 13 -67 13q-46 0 -59.5 -29.5t-13.5 -98.5v-28h250v-404q0 -64 44 -64q23 0 45 9z" />
    <glyph glyph-name="ffl" unicode="ffl" horiz-adv-x="788" 
d="M778 67l14 -61q-45 -16 -78 -16q-51 0 -81 31t-30 98v343h-170v-462h-84v462h-172v-462h-84v462h-81v68h82v28q0 113 40 156t134 32q37 -3 68 -15l-18 -58q-39 13 -68 13q-46 0 -59.5 -29.5t-13.5 -98.5v-28h172v28q0 113 40.5 156t133.5 32q37 -3 68 -15l-18 -58
q-38 13 -67 13q-46 0 -59.5 -29.5t-13.5 -98.5v-28h170v215h85v-623q0 -64 45 -64q14 0 45 9z" />
    <glyph glyph-name=".notdef" horiz-adv-x="278" 
 />
    <glyph glyph-name=".null" horiz-adv-x="0" 
 />
    <glyph glyph-name="nonmarkingreturn" horiz-adv-x="333" 
 />
    <glyph glyph-name="space" unicode=" " horiz-adv-x="225" 
 />
    <glyph glyph-name="exclam" unicode="!" horiz-adv-x="187" 
d="M141 198h-84v536h84v-536zM141 2h-84v119h84v-119z" />
    <glyph glyph-name="quotedbl" unicode="&#x22;" horiz-adv-x="355" 
d="M136 469h-58l-13 250h84zM277 469h-58l-13 250h84z" />
    <glyph glyph-name="numbersign" unicode="#" horiz-adv-x="654" 
d="M161 0h-82l57 160h-100v80h129l55 155h-106v79h135l55 153h82l-55 -153h101l55 153h82l-55 -153h92v-79h-121l-56 -155h107v-80h-136l-57 -160h-81l57 160h-101zM302 395l-55 -155h101l55 155h-101z" />
    <glyph glyph-name="dollar" unicode="$" horiz-adv-x="481" 
d="M295 -104h-80v94q-89 2 -185 32l18 72q103 -32 178 -32q149 0 149 123q0 40 -34 72.5t-82.5 58.5t-96.5 55t-82 75.5t-34 105.5q0 83 50 123.5t127 50.5v96h80v-94q61 -2 149 -26l-17 -73q-88 28 -153 28q-66 0 -106 -25.5t-40 -76.5q0 -40 34 -73t82 -59l96.5 -55
t82.5 -75.5t34 -105.5q0 -86 -46.5 -133t-123.5 -59v-99z" />
    <glyph glyph-name="percent" unicode="%" horiz-adv-x="937" 
d="M347 473q0 -76 -33.5 -112.5t-114.5 -36.5q-80 0 -114 37t-34 112v106q0 76 34 113t114 37q81 0 114.5 -37t33.5 -113v-106zM129 474q0 -49 13.5 -68.5t56.5 -19.5q45 0 58 23.5t13 80.5v88q0 49 -14 69t-57 20q-45 0 -57.5 -23.5t-12.5 -80.5v-89zM277 -12h-94l460 729
h95zM870 140q0 -76 -34 -113t-114 -37q-81 0 -114.5 37t-33.5 113v105q0 76 33.5 113t114.5 37q80 0 114 -37t34 -113v-105zM651 141q0 -49 14 -69t57 -20q45 0 57.5 23.5t12.5 80.5v89q0 49 -13.5 68.5t-56.5 19.5q-45 0 -58 -23.5t-13 -80.5v-88z" />
    <glyph glyph-name="ampersand" unicode="&#x26;" horiz-adv-x="817" 
d="M647 0h-88v339h-248q-36 0 -63 -4.5t-52 -16.5t-38 -35.5t-13 -58.5v-41q0 -118 183 -118q96 0 170 21l14 -74q-98 -22 -184 -22q-54 0 -99 9t-85.5 29.5t-63.5 60t-23 94.5v41q0 72 39.5 109t98.5 45q-57 11 -91 44.5t-34 103.5v20q0 101 63 142.5t182 41.5
q93 0 223 -25l-15 -71q-124 21 -205 21q-87 0 -123.5 -24.5t-36.5 -84.5v-20q0 -64 43 -87.5t115 -23.5h480v-76h-149v-339z" />
    <glyph glyph-name="quotesingle" unicode="'" horiz-adv-x="209" 
d="M134 469h-58l-13 250h84z" />
    <glyph glyph-name="parenleft" unicode="(" horiz-adv-x="240" 
d="M106 314q0 -120 32.5 -245t86.5 -195l-28 -28q-83 78 -131 202.5t-48 265.5q0 142 48 266t131 202l28 -28q-54 -70 -86.5 -195t-32.5 -245z" />
    <glyph glyph-name="parenright" unicode=")" horiz-adv-x="241" 
d="M138 314q0 119 -33 244.5t-87 195.5l28 28q83 -78 131 -202t48 -266q0 -141 -48 -265.5t-131 -202.5l-28 28q54 70 87 195.5t33 244.5z" />
    <glyph glyph-name="asterisk" unicode="*" horiz-adv-x="395" 
d="M271 405l-73 120l-74 -120l-63 46l94 102l-138 32l29 69l126 -56l-14 132h81l-15 -132l126 56l29 -69l-139 -32l94 -103z" />
    <glyph glyph-name="plus" unicode="+" horiz-adv-x="504" 
d="M293 24h-78v206h-210v75h210v205h78v-205h206v-75h-206v-206z" />
    <glyph glyph-name="comma" unicode="," horiz-adv-x="184" 
d="M87 -129h-62l51 235h103z" />
    <glyph glyph-name="hyphen" unicode="-" horiz-adv-x="370" 
d="M305 252h-239v80h239v-80z" />
    <glyph glyph-name="period" unicode="." horiz-adv-x="194" 
d="M139 0h-84v111h84v-111z" />
    <glyph glyph-name="slash" unicode="/" horiz-adv-x="431" 
d="M94 -51h-90l333 827h90z" />
    <glyph glyph-name="zero" unicode="0" horiz-adv-x="649" 
d="M321 -10q-133 0 -199.5 71t-66.5 201v195q0 273 266 273h7q266 0 266 -273v-195q0 -130 -67 -201t-199 -71h-7zM321 66h7q94 0 134.5 51t40.5 146v194q0 100 -40 148.5t-135 48.5h-7q-96 0 -136 -48.5t-40 -148.5v-194q0 -197 176 -197z" />
    <glyph glyph-name="one" unicode="1" horiz-adv-x="311" 
d="M253 0h-89v642h-57v77h146v-719z" />
    <glyph glyph-name="two" unicode="2" horiz-adv-x="626" 
d="M581 0h-524v77l83 68.5l77.5 63l66 55t59.5 52l47 45t40 44.5t26.5 39.5t18.5 40t5 36.5q0 134 -169 134q-107 0 -214 -33l-14 71q115 37 235 37q129 0 191 -50.5t62 -156.5q0 -23 -5 -45t-18.5 -46t-25.5 -43t-39 -46.5l-44.5 -45.5t-56 -50.5l-60.5 -51l-70.5 -58
l-74.5 -60.5h404v-77z" />
    <glyph glyph-name="three" unicode="3" horiz-adv-x="581" 
d="M438 183v41q0 66 -44.5 90t-121.5 24h-51l-12 76h57q159 0 159 112v20q0 60 -36.5 84.5t-123.5 24.5q-81 0 -205 -21l-15 71q130 25 223 25q121 0 183 -41t62 -143v-20q0 -70 -34 -103.5t-91 -44.5q59 -8 98.5 -45t39.5 -109v-41q0 -193 -279 -193q-97 0 -214 22l14 74
q109 -21 200 -21q191 0 191 118z" />
    <glyph glyph-name="four" unicode="4" horiz-adv-x="603" 
d="M406 218v157h86v-157h96v-76h-96v-142h-86v142h-387v76l392 501h106l-396 -501h285z" />
    <glyph glyph-name="five" unicode="5" horiz-adv-x="606" 
d="M545 227v-4q0 -65 -23.5 -111.5t-65.5 -72.5t-93 -37.5t-114 -11.5q-87 0 -208 27l18 72q115 -23 185 -23q92 0 152.5 36.5t60.5 120.5v4q0 35 -5 56t-25.5 44.5t-59.5 36.5t-108.5 22t-171.5 11l58 322h377l-17 -75h-287l-39 -179q144 -4 223 -29t111 -74t32 -135z" />
    <glyph glyph-name="six" unicode="6" horiz-adv-x="645" 
d="M486 730l22 -67q-249 -72 -346 -244q78 51 181 51h7q124 0 183 -53.5t59 -169.5v-35q0 -113 -65.5 -167.5t-200.5 -54.5h-7q-135 0 -200.5 54.5t-65.5 167.5v48q16 347 433 470zM319 65h7q96 0 137 38.5t41 109.5v34q0 75 -40 111.5t-138 36.5h-7q-97 0 -137.5 -36.5
t-40.5 -111.5v-34q0 -71 41 -109.5t137 -38.5z" />
    <glyph glyph-name="seven" unicode="7" horiz-adv-x="557" 
d="M167 0h-101l381 644h-412l-14 75h517v-75z" />
    <glyph glyph-name="eight" unicode="8" horiz-adv-x="649" 
d="M349 -9h-49q-132 0 -188.5 44t-56.5 169q0 161 116 186q-91 25 -91 154v4q0 102 50 141.5t170 39.5h49q120 0 170 -39.5t50 -141.5v-4q0 -126 -91 -154q116 -25 116 -186q0 -125 -56.5 -169t-188.5 -44zM299 63h51q88 0 122 29t34 113t-30.5 115t-126.5 31h-49
q-96 0 -126.5 -31t-30.5 -115q0 -85 33.5 -113.5t122.5 -28.5zM349 661h-49q-77 0 -106 -24.5t-29 -89.5q0 -67 30 -92t105 -25h49q75 0 105 25t30 92q0 65 -29 89.5t-106 24.5z" />
    <glyph glyph-name="nine" unicode="9" horiz-adv-x="645" 
d="M159 -11l-22 67q246 69 346 244q-77 -51 -181 -51h-7q-124 0 -183 53.5t-59 169.5v35q0 113 65.5 167.5t200.5 54.5h7q135 0 200.5 -54.5t65.5 -167.5v-35q0 -9 -1 -13q-14 -348 -432 -470zM326 654h-7q-96 0 -137 -38.5t-41 -109.5v-34q0 -75 40 -111.5t138 -36.5h7
q97 0 137.5 36.5t40.5 111.5v34q0 71 -41 109.5t-137 38.5z" />
    <glyph glyph-name="colon" unicode=":" horiz-adv-x="153" 
d="M122 0h-84v111h84v-111zM122 429h-84v111h84v-111z" />
    <glyph glyph-name="semicolon" unicode=";" horiz-adv-x="196" 
d="M146 421h-85v119h85v-119zM74 -129h-62l51 235h103z" />
    <glyph glyph-name="less" unicode="&#x3c;" horiz-adv-x="559" 
d="M500 113v-71l-452 192v65l452 192v-71l-367 -153z" />
    <glyph glyph-name="equal" unicode="=" horiz-adv-x="507" 
d="M488 329h-472v76h472v-76zM488 127h-473v76h473v-76z" />
    <glyph glyph-name="greater" unicode="&#x3e;" horiz-adv-x="492" 
d="M48 42v71l366 154l-366 153v71l452 -192v-65z" />
    <glyph glyph-name="question" unicode="?" horiz-adv-x="374" 
d="M192 180h-84v48q0 40 17.5 77.5t42 67l49 57.5t42 59.5t17.5 62.5q0 60 -30.5 81t-93.5 21q-80 0 -142 -19l-15 71q105 24 157 24q103 0 157.5 -37t54.5 -141q0 -37 -17.5 -72.5t-43 -64l-51 -57t-43 -62.5t-17.5 -68v-48zM191 -5h-83v107h83v-107z" />
    <glyph glyph-name="at" unicode="@" horiz-adv-x="819" 
d="M616 95l21 -70q-86 -62 -207 -62q-173 0 -279.5 100.5t-106.5 284.5q0 165 114.5 273.5t279.5 108.5t266.5 -92.5t101.5 -224.5q0 -268 -204 -268q-30 0 -59 19.5t-38 58.5q-26 -33 -61.5 -49t-65.5 -16q-62 0 -103 38t-41 105q0 86 57.5 155.5t153.5 69.5
q75 0 110 -37.5t35 -93.5q0 -24 -11 -62t-12 -43q-8 -81 39 -81q49 0 82 54.5t33 145.5q0 109 -80 177t-203 68q-135 0 -222 -88.5t-87 -217.5q0 -149 83 -229t219 -80q111 0 185 56zM389 225q52 1 89 48.5t38 101.5q0 38 -19 62.5t-60 23.5q-58 -2 -93.5 -48t-36.5 -103
q-1 -39 20.5 -62.5t61.5 -22.5z" />
    <glyph glyph-name="A" unicode="A" horiz-adv-x="612" 
d="M588 0h-96l-57 186h-259l-57 -186h-95l246 719h71zM306 612l-107 -351h213z" />
    <glyph glyph-name="B" unicode="B" horiz-adv-x="628" 
d="M358 0h-292v719h286q66 0 107.5 -11.5t63.5 -37.5t30 -59t8 -85q0 -68 -26 -107.5t-62 -48.5q47 -7 76 -50t29 -111v-16q0 -101 -46.5 -147t-173.5 -46zM487 193v16q0 65 -28.5 93t-95.5 28h-208v-255h203q68 0 98.5 26.5t30.5 91.5zM155 406h197q64 0 90.5 27.5
t26.5 92.5t-26 91.5t-91 26.5h-197v-238z" />
    <glyph glyph-name="C" unicode="C" horiz-adv-x="540" 
d="M490 87l17 -70q-73 -27 -159 -27h-12q-147 0 -214 60t-67 207v206q0 147 67 206.5t214 59.5h12q84 0 159 -26l-17 -71q-74 22 -142 22h-12q-107 0 -148.5 -42.5t-41.5 -148.5v-206q0 -106 41.5 -148.5t148.5 -42.5h12q64 0 142 21z" />
    <glyph glyph-name="D" unicode="D" horiz-adv-x="646" 
d="M325 0h-259v719h259q154 0 209.5 -59.5t55.5 -205.5v-189q0 -150 -57 -207.5t-208 -57.5zM499 264v191q0 101 -39 145t-147 44h-158v-569h158q108 0 147 44t39 145z" />
    <glyph glyph-name="E" unicode="E" horiz-adv-x="539" 
d="M495 0h-429v719h429v-75h-340v-237h315v-76h-315v-256h340v-75z" />
    <glyph glyph-name="F" unicode="F" horiz-adv-x="495" 
d="M154 0h-88v719h426v-75h-338v-247h312v-76h-312v-321z" />
    <glyph glyph-name="G" unicode="G" horiz-adv-x="622" 
d="M469 83v227h89v-270q-81 -50 -207 -50h-14q-147 0 -214 60t-67 207v206q0 147 67 206.5t214 59.5h12q109 0 205 -42l-17 -71q-96 38 -188 38h-12q-107 0 -148.5 -42.5t-41.5 -148.5v-206q0 -106 41.5 -148.5t148.5 -42.5h14q68 0 118 17z" />
    <glyph glyph-name="H" unicode="H" horiz-adv-x="664" 
d="M598 0h-89v334h-354v-334h-89v719h89v-309h354v309h89v-719z" />
    <glyph glyph-name="I" unicode="I" horiz-adv-x="221" 
d="M155 0h-89v719h89v-719z" />
    <glyph glyph-name="J" unicode="J" horiz-adv-x="221" 
d="M-86 -210l15 60q40 -12 70 -12q40 0 53.5 27.5t13.5 99.5v754h89v-742q0 -110 -31.5 -158t-106.5 -48q-33 0 -103 19z" />
    <glyph glyph-name="K" unicode="K" horiz-adv-x="597" 
d="M155 0h-89v719h89v-325l318 325h105l-329 -336l346 -383h-105l-335 371v-371z" />
    <glyph glyph-name="L" unicode="L" 
d="M511 0h-445v719h89v-644h356v-75z" />
    <glyph glyph-name="M" unicode="M" horiz-adv-x="957" 
d="M936 0h-91l-119 571l-205 -581h-85l-207 581l-117 -571h-91l165 725h72l220 -622l221 622h72z" />
    <glyph glyph-name="N" unicode="N" horiz-adv-x="646" 
d="M66 719h87l341 -571v571h87v-719h-87l-341 567v-567h-87v719z" />
    <glyph glyph-name="O" unicode="O" horiz-adv-x="678" 
d="M346 -10h-14q-145 0 -211 60t-66 207v205q0 149 65 208t212 59h14q145 0 211 -60t66 -207v-205q0 -147 -66 -207t-211 -60zM532 257v205q0 106 -41 149t-145 43h-14q-104 0 -145 -43t-41 -149v-205q0 -106 41 -148.5t145 -42.5h14q104 0 145 42.5t41 148.5z" />
    <glyph glyph-name="P" unicode="P" horiz-adv-x="579" 
d="M155 0h-89v719h241q131 0 187.5 -44t56.5 -171q0 -126 -56.5 -170t-187.5 -44h-152v-290zM155 364h152q89 0 120.5 27.5t31.5 112.5t-31.5 112.5t-120.5 27.5h-152v-280z" />
    <glyph glyph-name="Q" unicode="Q" horiz-adv-x="678" 
d="M512 -104l14 -71q-56 -14 -92 -14q-76 0 -106.5 35.5t-30.5 127.5v17q-126 6 -184 66.5t-58 199.5v205q0 149 65 208t212 59h14q145 0 211 -60t66 -207v-205q0 -138 -58 -198.5t-183 -67.5v-21q0 -49 13 -67t46 -18q20 0 71 11zM532 257v205q0 106 -41 149t-145 43h-14
q-104 0 -145 -43t-41 -149v-205q0 -106 41 -148.5t145 -42.5h14q104 0 145 42.5t41 148.5z" />
    <glyph glyph-name="R" unicode="R" horiz-adv-x="599" 
d="M155 0h-89v719h241q131 0 187.5 -44t56.5 -171q0 -101 -35.5 -148t-113.5 -60l150 -296h-96l-142 290h-159v-290zM155 364h152q89 0 120.5 27.5t31.5 112.5t-31.5 112.5t-120.5 27.5h-152v-280z" />
    <glyph glyph-name="S" unicode="S" horiz-adv-x="516" 
d="M41 22l18 72q103 -32 178 -32q149 0 149 123q0 40 -34 72.5t-82.5 58.5t-96.5 55t-82 75.5t-34 105.5q0 51 21 88t56.5 55t72 26t78.5 8q83 0 178 -27l-17 -73q-88 28 -153 28q-66 0 -106 -25.5t-40 -76.5q0 -40 34 -73t82.5 -59t96.5 -55t82 -75.5t34 -105.5
q0 -70 -34 -116t-84 -63.5t-114 -17.5q-99 0 -203 32z" />
    <glyph glyph-name="T" unicode="T" horiz-adv-x="536" 
d="M313 0h-89v644h-217v75h522v-75h-216v-644z" />
    <glyph glyph-name="U" unicode="U" horiz-adv-x="665" 
d="M337 -10h-8q-140 0 -204.5 63t-64.5 216v450h89v-451q0 -110 40.5 -156.5t139.5 -46.5h8q99 0 139.5 46.5t40.5 156.5v451h89v-450q0 -153 -64.5 -216t-204.5 -63z" />
    <glyph glyph-name="V" unicode="V" horiz-adv-x="599" 
d="M335 -10h-72l-246 729h96l186 -606l186 606h96z" />
    <glyph glyph-name="W" unicode="W" horiz-adv-x="978" 
d="M733 -6h-69l-175 576l-175 -576h-69l-228 725h95l166 -591l175 598h70l178 -598l165 591h95z" />
    <glyph glyph-name="X" unicode="X" horiz-adv-x="560" 
d="M539 0h-98l-161 294l-161 -294h-98l200 363l-198 356h96l161 -291l160 291h97l-199 -356z" />
    <glyph glyph-name="Y" unicode="Y" horiz-adv-x="570" 
d="M330 0h-89v289l-227 431h99l173 -353l171 353h98l-225 -431v-289z" />
    <glyph glyph-name="Z" unicode="Z" horiz-adv-x="541" 
d="M522 0h-505v75l385 569h-357v75h464v-75l-385 -569h398v-75z" />
    <glyph glyph-name="bracketleft" unicode="[" horiz-adv-x="233" 
d="M224 -165h-159v927h159v-71h-74v-785h74v-71z" />
    <glyph glyph-name="backslash" unicode="\" horiz-adv-x="404" 
d="M410 -20h-84l-323 797h84z" />
    <glyph glyph-name="bracketright" unicode="]" horiz-adv-x="231" 
d="M224 -165h-159v71h75v785h-75v71h159v-927z" />
    <glyph glyph-name="asciicircum" unicode="^" horiz-adv-x="510" 
d="M263 682l232 -288h-98l-134 178l-135 -178h-98z" />
    <glyph glyph-name="underscore" unicode="_" horiz-adv-x="628" 
d="M562 -71h-496v77h496v-77z" />
    <glyph glyph-name="grave" unicode="`" horiz-adv-x="223" 
d="M122 590l-143 146l100 13l110 -152z" />
    <glyph glyph-name="a" unicode="a" horiz-adv-x="483" 
d="M339 277v79q0 62 -24 89t-82 27q-46 0 -139 -24l-17 62q90 30 168 30q97 0 137.5 -46.5t40.5 -137.5v-296q0 -36 -84.5 -53t-165.5 -17q-42 0 -70 12.5t-42 37t-19 51.5t-5 65q0 75 26.5 117t101.5 42q93 0 174 -38zM339 78v141q0 15 -52.5 27.5t-95.5 12.5
q-69 0 -69 -104q0 -53 15 -80.5t54 -27.5q55 0 101.5 8t46.5 23z" />
    <glyph glyph-name="b" unicode="b" horiz-adv-x="507" 
d="M452 360v-186q0 -36 -1.5 -57.5t-8.5 -48.5t-20.5 -42t-38 -25.5t-60.5 -10.5q-107 0 -183.5 25t-76.5 54v676h84v-263q71 58 184 58q33 0 56.5 -10t36 -25t19 -41t8 -47.5t1.5 -56.5zM368 173v187q0 29 -1.5 45.5t-6.5 35.5t-17.5 27.5t-32.5 8.5q-61 0 -105 -14
t-58 -33v-329q0 -17 49.5 -32.5t113.5 -15.5q20 0 32.5 9t17.5 28t6.5 36t1.5 47z" />
    <glyph glyph-name="c" unicode="c" horiz-adv-x="407" 
d="M355 66l13 -62q-56 -16 -126 -16q-106 0 -148 55t-42 168v106q0 113 42 168t148 55q70 0 126 -16l-13 -62q-57 11 -101 11q-71 0 -94.5 -39t-23.5 -117v-106q0 -78 23.5 -117t94.5 -39q44 0 101 11z" />
    <glyph glyph-name="d" unicode="d" horiz-adv-x="506" 
d="M58 174v186q0 35 1.5 56.5t8 47.5t19 41t36 25t56.5 10q113 0 184 -58v263h84v-676q0 -29 -76.5 -54t-183.5 -25q-36 0 -60.5 10.5t-38 25.5t-20.5 42t-8.5 48.5t-1.5 57.5zM142 360v-187q0 -30 1.5 -47t6.5 -36t17.5 -28t32.5 -9q64 0 113.5 15.5t49.5 32.5v329
q-14 19 -58 33t-105 14q-20 0 -32.5 -8.5t-17.5 -27.5t-6.5 -35.5t-1.5 -45.5z" />
    <glyph glyph-name="e" unicode="e" horiz-adv-x="485" 
d="M424 87l17 -61q-86 -36 -180 -36q-116 0 -162.5 55t-46.5 168v95q0 136 53 184t184 48q88 0 118 -40.5t30 -113.5v-63q0 -92 -301 -95v-23q0 -70 25.5 -109t99.5 -39q85 0 163 30zM356 335v50q0 47 -11.5 69.5t-47.5 22.5q-86 0 -123.5 -27.5t-37.5 -106.5v-69
q220 5 220 61z" />
    <glyph glyph-name="f" unicode="f" horiz-adv-x="301" 
d="M178 0h-85v462h-81v68h81v28q0 113 40.5 156t134.5 32q37 -3 68 -15l-18 -58q-39 13 -68 13q-46 0 -59 -29.5t-13 -98.5v-28h114v-68h-114v-462z" />
    <glyph glyph-name="g" unicode="g" horiz-adv-x="507" 
d="M360 -24v72q-71 -58 -184 -58q-33 0 -56.5 10.5t-36 25.5t-19 41.5t-8 49t-1.5 57.5v182q0 36 1.5 57.5t8.5 48.5t20.5 42t38 25.5t60.5 10.5q107 0 183.5 -26t76.5 -57v-481q0 -114 -25.5 -159.5t-106.5 -45.5q-40 0 -83.5 7.5t-73 15.5t-84.5 25l21 62q136 -42 208 -42
q21 0 33.5 8.5t18 29.5t7 40.5t1.5 58.5zM360 100v329q0 17 -49.5 32.5t-113.5 15.5q-20 0 -32.5 -9.5t-17.5 -31t-6.5 -40t-1.5 -51.5v-175q0 -29 1.5 -45.5t6.5 -35.5t17.5 -27.5t32.5 -8.5q61 0 105 14t58 33z" />
    <glyph glyph-name="h" unicode="h" 
d="M452 0h-84v360q0 29 -1.5 45.5t-6.5 35.5t-17.5 27.5t-32.5 8.5q-59 0 -102.5 -15.5t-60.5 -31.5v-430h-84v745h84v-263q71 58 184 58q33 0 56.5 -10.5t36 -25.5t19 -41.5t8 -49t1.5 -57.5v-356z" />
    <glyph glyph-name="i" unicode="i" horiz-adv-x="241" 
d="M233 66l14 -60q-45 -16 -78 -16q-51 0 -81 31t-30 98v411h85v-408q0 -65 45 -65q23 0 45 9zM143 633h-83v112h83v-112z" />
    <glyph glyph-name="j" unicode="j" horiz-adv-x="188" 
d="M54 -44v574h85v-574q0 -98 -31.5 -141.5t-103.5 -43.5q-42 0 -105 20l21 62q49 -15 76 -15q31 0 44.5 26t13.5 92zM139 633h-84v112h84v-112z" />
    <glyph glyph-name="k" unicode="k" horiz-adv-x="461" 
d="M151 0h-85v745h85v-459l199 244h95l-213 -252l224 -278h-96l-209 269v-269z" />
    <glyph glyph-name="l" unicode="l" horiz-adv-x="241" 
d="M233 67l14 -61q-45 -16 -78 -16q-51 0 -81 31t-30 98v626h85v-623q0 -64 45 -64q14 0 45 9z" />
    <glyph glyph-name="m" unicode="m" horiz-adv-x="771" 
d="M707 0h-85v356q0 30 -1 46t-6 35t-17.5 27.5t-32.5 8.5q-55 0 -96 -16.5t-41 -34.5v-422h-85v383q-2 45 -13.5 67.5t-43.5 22.5q-55 0 -96 -16.5t-41 -34.5v-422h-85v445q0 30 71 62.5t164 32.5q83 0 111 -56q85 56 168 56q35 0 60 -10.5t38 -25.5t20.5 -41.5t9 -49
t1.5 -57.5v-356z" />
    <glyph glyph-name="n" unicode="n" horiz-adv-x="515" 
d="M452 0h-85v356q0 29 -1.5 46t-7 35.5t-17.5 27t-32 8.5q-65 0 -113.5 -15.5t-48.5 -34.5v-423h-85v445q0 30 78.5 62.5t182.5 32.5q35 0 60 -10.5t38 -25.5t20.5 -41.5t9 -49t1.5 -57.5v-356z" />
    <glyph glyph-name="o" unicode="o" horiz-adv-x="504" 
d="M450 385v-240q0 -80 -48 -117.5t-150 -37.5q-101 0 -149 37.5t-48 117.5v240q0 80 48 117.5t149 37.5q102 0 150 -37.5t48 -117.5zM366 146v239q0 92 -114 92q-113 0 -113 -92v-239q0 -93 113 -93q114 0 114 93z" />
    <glyph glyph-name="p" unicode="p" horiz-adv-x="507" 
d="M147 -215h-84v660q0 32 77.5 63.5t182.5 31.5q36 0 60.5 -10.5t38 -25.5t20.5 -42.5t8.5 -50t1.5 -58.5v-183q0 -35 -1.5 -56.5t-8 -47.5t-19 -41t-36 -25t-56.5 -10q-113 0 -184 58v-263zM368 170v183q0 31 -1.5 48.5t-6.5 37.5t-17.5 29t-32.5 9q-64 0 -113.5 -15.5
t-49.5 -32.5v-329q14 -19 58 -33t105 -14q20 0 32.5 8.5t17.5 27.5t6.5 35.5t1.5 45.5z" />
    <glyph glyph-name="q" unicode="q" horiz-adv-x="504" 
d="M440 -215h-84v263q-71 -58 -184 -58q-33 0 -56.5 10.5t-36 25.5t-19 41.5t-8 49t-1.5 57.5v182q0 36 1.5 57.5t8.5 48.5t20.5 42t38 25.5t60.5 10.5q105 0 182.5 -31t77.5 -64v-660zM356 100v329q0 17 -49 32.5t-114 15.5q-20 0 -32.5 -9.5t-17.5 -31t-6.5 -40
t-1.5 -51.5v-175q0 -29 1.5 -45.5t6.5 -35.5t17.5 -27.5t32.5 -8.5q61 0 105.5 14.5t57.5 32.5z" />
    <glyph glyph-name="r" unicode="r" horiz-adv-x="321" 
d="M147 0h-85v445q0 28 64.5 61.5t146.5 33.5q29 0 46 -4l-11 -71q-19 4 -45 4q-45 0 -80.5 -15.5t-35.5 -30.5v-423z" />
    <glyph glyph-name="s" unicode="s" horiz-adv-x="392" 
d="M17 22l16 65q81 -30 147 -30q104 0 104 80q0 29 -26 51t-63.5 38t-75 35t-63.5 53.5t-26 82.5q0 55 29 89t65 44t80 10q68 0 146 -22l-16 -65q-72 20 -125 20q-44 0 -70.5 -17t-26.5 -51q0 -29 26.5 -51t63.5 -38.5t74.5 -35.5t64 -53t26.5 -82q0 -88 -49.5 -121.5
t-133.5 -33.5q-76 0 -167 32z" />
    <glyph glyph-name="t" unicode="t" horiz-adv-x="316" 
d="M299 89l20 -69q-76 -30 -126 -30q-51 0 -81 29.5t-30 93.5v349h-60v68h60v114h85v-114h125v-68h-125v-342q0 -54 41 -54q34 0 91 23z" />
    <glyph glyph-name="u" unicode="u" 
d="M368 103v427h85v-459q0 -29 -77.5 -55t-183.5 -26q-35 0 -60 10.5t-38 25.5t-20.5 41.5t-9 49t-1.5 57.5v356h85v-356q0 -30 1 -46.5t6 -36.5t17.5 -29t32.5 -9q66 0 114.5 15.5t48.5 34.5z" />
    <glyph glyph-name="v" unicode="v" horiz-adv-x="433" 
d="M251 -6h-72l-167 536h90l114 -429l114 429h91z" />
    <glyph glyph-name="w" unicode="w" horiz-adv-x="693" 
d="M522 -6h-73l-102 418l-103 -418h-73l-147 536h89l95 -421l101 427h75l107 -427l89 421h89z" />
    <glyph glyph-name="x" unicode="x" horiz-adv-x="446" 
d="M437 0h-89l-124 218l-125 -218h-90l158 265l-146 265h89l114 -216l112 216h88l-141 -264z" />
    <glyph glyph-name="y" unicode="y" horiz-adv-x="515" 
d="M367 -24v72q-71 -58 -184 -58q-33 0 -56 10t-35.5 25t-19.5 41t-8.5 48t-1.5 56v360h85v-360q0 -30 1 -46t6 -35t17.5 -27.5t32.5 -8.5q61 0 105.5 14.5t57.5 32.5v430h85v-554q0 -114 -25.5 -159.5t-106.5 -45.5q-40 0 -83.5 7.5t-73 15.5t-84.5 25l21 62
q136 -42 208 -42q39 0 49 31t10 106z" />
    <glyph glyph-name="z" unicode="z" horiz-adv-x="409" 
d="M394 0h-377v66l277 398h-256v66h348v-65l-276 -399h284v-66z" />
    <glyph glyph-name="braceleft" unicode="{" horiz-adv-x="257" 
d="M249 754v-53q-75 0 -75 -104q0 -20 3 -61t3 -68q0 -124 -65 -173q65 -48 65 -172q0 -28 -3 -68.5t-3 -60.5q0 -104 75 -104v-53q-77 0 -114 35t-44 101q-4 14 -0.5 72.5t3.5 77.5q0 138 -80 142h-5v61q85 0 85 142q0 18 -3.5 76.5t0.5 73.5q7 66 44 101t114 35z" />
    <glyph glyph-name="bar" unicode="|" horiz-adv-x="200" 
d="M144 -199h-78v952h78v-952z" />
    <glyph glyph-name="braceright" unicode="}" horiz-adv-x="272" 
d="M9 701v53q77 0 114 -35t44 -101q3 -30 -0.5 -80t-3.5 -70q0 -142 86 -142v-61q-86 0 -86 -142q0 -21 3.5 -71t0.5 -79q-7 -66 -44 -101t-114 -35v53q75 0 75 104q0 20 -3.5 60.5t-3.5 68.5q0 123 65 172q-65 49 -65 173q0 27 3.5 68t3.5 61q0 104 -75 104z" />
    <glyph glyph-name="asciitilde" unicode="~" horiz-adv-x="525" 
d="M417 338l58 -28q-17 -52 -52.5 -78t-77.5 -26q-38 0 -91.5 31t-81.5 31q-34 0 -65 -52l-60 29q20 45 51 71t66 31q41 4 98 -28t89 -32q36 0 66 51z" />
    <glyph glyph-name="exclamdown" unicode="&#xa1;" horiz-adv-x="189" 
d="M143 418h-84v119h84v-119zM143 -199h-84v540h84v-540z" />
    <glyph glyph-name="cent" unicode="&#xa2;" horiz-adv-x="368" 
d="M260 -116h-77v106q-83 10 -121 60.5t-38 142.5v142q0 181 159 203v114h77v-113q55 -6 89 -15l-15 -70q-53 13 -99 13q-68 0 -97 -37.5t-29 -122.5v-86q0 -83 28.5 -122.5t90.5 -39.5q37 0 106 15l15 -70q-42 -11 -89 -15v-105z" />
    <glyph glyph-name="sterling" unicode="&#xa3;" horiz-adv-x="503" 
d="M378 320h-131q6 -44 6 -63q0 -61 -21 -105t-81 -77h356v-75h-475v74q129 63 129 182q0 16 -6 64h-103v71h90q-12 82 -12 124v30q0 196 230 196q37 0 139 -18l-14 -71q-115 17 -164 11q-46 -6 -74.5 -34.5t-28.5 -83.5v-30q0 -49 15 -124h145v-71z" />
    <glyph glyph-name="currency" unicode="&#xa4;" horiz-adv-x="638" 
d="M513 42l-56 55q-66 -41 -138 -41q-70 0 -136 42l-57 -56l-69 66l58 56q-42 68 -42 132q0 67 42 131l-59 57l42 40l27 25l58 -55q68 41 137 41q71 0 137 -41l56 54l69 -66l-57 -56q39 -64 39 -129q0 -63 -40 -133l58 -56zM319 127q72 0 122.5 49.5t50.5 120.5
q0 69 -50.5 118t-121.5 49t-122.5 -48.5t-51.5 -119.5q0 -68 51.5 -118.5t121.5 -50.5z" />
    <glyph glyph-name="yen" unicode="&#xa5;" horiz-adv-x="570" 
d="M330 0h-89v131h-169v72h169v59h-168v72h144l-203 386h99l173 -353l171 353h98l-202 -386h148v-72h-171v-59h171v-72h-171v-131z" />
    <glyph glyph-name="brokenbar" unicode="&#xa6;" horiz-adv-x="200" 
d="M144 -199h-78v389h78v-389zM144 362h-78v383h78v-383z" />
    <glyph glyph-name="section" unicode="&#xa7;" horiz-adv-x="391" 
d="M18 -40l16 66q74 -24 142 -24q109 0 109 79q0 28 -26 49.5t-63.5 37.5t-75 35.5t-63.5 54.5t-26 83q0 87 69 121q-69 50 -69 124q0 42 16 71.5t43.5 44.5t55.5 21t60 6q64 0 141 -21l-16 -66q-60 19 -121 19q-96 0 -96 -67q0 -28 26 -49.5t63.5 -38t75 -36t63.5 -54
t26 -82.5q0 -87 -65 -125q65 -47 65 -120q0 -81 -53.5 -118t-134.5 -37q-74 0 -162 26zM114 349q0 -16 6.5 -29t25.5 -26t28 -18t40 -19q7 -3 10 -5q61 15 61 74q0 29 -23.5 48t-72.5 41q-75 -8 -75 -66z" />
    <glyph glyph-name="dieresis" unicode="&#xa8;" horiz-adv-x="408" 
d="M150 590h-83v119h83v-119zM342 590h-83v119h83v-119z" />
    <glyph glyph-name="copyright" unicode="&#xa9;" horiz-adv-x="837" 
d="M804 350q0 -116 -57 -201t-143 -124.5t-186 -39.5t-186 39.5t-143 124.5t-57 201q0 88 33 159t88 115t123 67t142 23t142 -23t123 -67t88 -115t33 -159zM747 350q0 149 -97.5 232.5t-231.5 83.5q-86 0 -159 -34t-121.5 -107.5t-48.5 -174.5t48.5 -175t121.5 -108t159 -34
q63 0 121 20.5t105 58.5t75 100t28 138zM526 158l12 -57q-49 -15 -117 -15q-99 0 -138 51t-39 156v99q0 105 39 156t138 51q65 0 117 -14l-12 -58q-55 10 -94 10q-66 0 -88 -36t-22 -109v-99q0 -73 22 -109t88 -36q39 0 94 10z" />
    <glyph glyph-name="ordfeminine" unicode="&#xaa;" horiz-adv-x="448" 
d="M261 527v57q0 45 -17.5 64.5t-58.5 19.5q-35 0 -101 -17l-12 45q67 21 121 21q70 0 99.5 -33.5t29.5 -99.5v-215q0 -26 -61.5 -38t-119.5 -12t-78 31t-20 89q0 54 19 84.5t73 30.5q68 0 126 -27zM261 383v102q0 10 -38 19.5t-69 9.5q-50 0 -50 -76q0 -78 50 -78
q41 0 74 6t33 17z" />
    <glyph glyph-name="guillemotleft" unicode="&#xab;" horiz-adv-x="481" 
d="M218 60l-191 221l191 220l55 -48l-143 -172l143 -172zM400 60l-191 221l191 220l55 -48l-143 -172l143 -172z" />
    <glyph glyph-name="logicalnot" unicode="&#xac;" horiz-adv-x="565" 
d="M500 133h-79v194h-418v76h497v-270z" />
    <glyph glyph-name="registered" unicode="&#xae;" horiz-adv-x="837" 
d="M804 350q0 -116 -57 -201t-143 -124.5t-186 -39.5t-186 39.5t-143 124.5t-57 201q0 88 33 159t88 115t123 67t142 23t142 -23t123 -67t88 -115t33 -159zM747 350q0 149 -97.5 232.5t-231.5 83.5q-86 0 -159 -34t-121.5 -107.5t-48.5 -174.5t48.5 -175t121.5 -108t159 -34
q63 0 121 20.5t105 58.5t75 100t28 138zM338 117h-76v473h166q91 0 130 -31t39 -118q0 -65 -22.5 -97.5t-70.5 -43.5l98 -183h-86l-88 176h-90v-176zM338 357h90q51 0 70.5 17.5t19.5 66.5q0 50 -19.5 68t-70.5 18h-90v-170z" />
    <glyph glyph-name="macron" unicode="&#xaf;" horiz-adv-x="388" 
d="M323 590h-257v65h257v-65z" />
    <glyph glyph-name="degree" unicode="&#xb0;" horiz-adv-x="287" 
d="M251 686q0 -45 -31 -72.5t-78 -27.5t-78 27.5t-31 72.5t31 73t78 28t78 -28t31 -73zM196 686q0 23 -15.5 37.5t-38.5 14.5t-38.5 -14.5t-15.5 -37.5t15.5 -37t38.5 -14t38.5 14t15.5 37z" />
    <glyph glyph-name="plusminus" unicode="&#xb1;" horiz-adv-x="509" 
d="M293 77h-78v206h-210v75h210v205h78v-205h206v-75h-206v-206zM503 -47h-496v77h496v-77z" />
    <glyph glyph-name="twosuperior" unicode="&#xb2;" horiz-adv-x="437" 
d="M410 400h-378v75l52 40l97.5 76.5t67.5 58t50.5 56.5t13.5 44q0 80 -108 80q-73 0 -145 -24l-13 70q82 28 166 28q95 0 142.5 -35.5t47.5 -115.5q0 -27 -13.5 -54.5t-30 -49.5t-55.5 -55.5l-65.5 -54.5l-83.5 -64h255v-75z" />
    <glyph glyph-name="threesuperior" unicode="&#xb3;" horiz-adv-x="401" 
d="M285 530v28q0 63 -94 63h-47l-10 73h51q91 0 91 60v16q0 33 -21.5 46.5t-79.5 13.5q-49 0 -139 -14l-14 69q93 19 156 19q92 0 138 -30t46 -104v-16q0 -41 -19 -63t-57 -31q39 -6 62 -32.5t23 -69.5v-28q0 -137 -202 -137q-72 0 -155 16l13 72q82 -14 142 -14
q116 0 116 63z" />
    <glyph glyph-name="acute" unicode="&#xb4;" horiz-adv-x="224" 
d="M142 590h-77l116 190h105z" />
    <glyph glyph-name="mu" unicode="&#xb5;" horiz-adv-x="472" 
d="M151 -228h-85v758h85v-356q0 -30 1 -46.5t6 -36.5t17.5 -29t32.5 -9q66 0 114.5 15.5t48.5 34.5v427h85v-459q0 -29 -77.5 -55t-183.5 -26q-24 0 -44 5v-223z" />
    <glyph glyph-name="mu" unicode="&#x3bc;" horiz-adv-x="472" 
d="M151 -228h-85v758h85v-356q0 -30 1 -46.5t6 -36.5t17.5 -29t32.5 -9q66 0 114.5 15.5t48.5 34.5v427h85v-459q0 -29 -77.5 -55t-183.5 -26q-24 0 -44 5v-223z" />
    <glyph glyph-name="paragraph" unicode="&#xb6;" horiz-adv-x="549" 
d="M471 -116h-83v787h-77v-787h-83v454q-94 5 -151 59.5t-57 141.5q0 90 59 146.5t155 56.5h237v-858z" />
    <glyph glyph-name="periodcentered" unicode="&#xb7;" horiz-adv-x="435" 
d="M150 243h-84v119h84v-119z" />
    <glyph glyph-name="cedilla" unicode="&#xb8;" horiz-adv-x="267" 
d="M87 -72l42 81h40l-33 -56q38 -1 67.5 -20t29.5 -53q0 -45 -38.5 -66.5t-85 -19.5t-80.5 19l17 31q17 -11 46 -14t54 8.5t25 40.5q0 49 -84 49z" />
    <glyph glyph-name="onesuperior" unicode="&#xb9;" horiz-adv-x="223" 
d="M190 400h-88v421h-44v75h132v-496z" />
    <glyph glyph-name="ordmasculine" unicode="&#xba;" horiz-adv-x="287" 
d="M251 686q0 -45 -31 -72.5t-78 -27.5t-78 27.5t-31 72.5t31 73t78 28t78 -28t31 -73zM196 686q0 23 -15.5 37.5t-38.5 14.5t-38.5 -14.5t-15.5 -37.5t15.5 -37t38.5 -14t38.5 14t15.5 37z" />
    <glyph glyph-name="guillemotright" unicode="&#xbb;" horiz-adv-x="481" 
d="M273 281l-191 -221l-55 49l142 172l-142 172l55 48zM455 281l-191 -221l-55 49l142 172l-142 172l55 48z" />
    <glyph glyph-name="onequarter" unicode="&#xbc;" horiz-adv-x="992" 
d="M617 730l-302 -740h-89l301 740h90zM159 188h-88v421h-44v75h132v-496zM827 168v101h84v-101h63v-74h-63v-94h-84v94h-256v74l257 328h104l-261 -328h156z" />
    <glyph glyph-name="onehalf" unicode="&#xbd;" horiz-adv-x="1013" 
d="M617 730l-300 -740h-90l300 740h90zM159 188h-88v421h-44v75h132v-496zM994 0h-378v75l52 40l97.5 76.5t67.5 58t50.5 56.5t13.5 44q0 80 -108 80q-73 0 -145 -24l-13 70q82 28 166 28q95 0 142.5 -35.5t47.5 -115.5q0 -27 -13.5 -54.5t-30 -49.5t-55.5 -55.5
l-65.5 -54.5l-83.5 -64h255v-75z" />
    <glyph glyph-name="threequarters" unicode="&#xbe;" horiz-adv-x="1127" 
d="M773 730l-302 -740h-90l302 740h90zM288 318v28q0 63 -94 63h-47l-10 73h51q91 0 91 60v16q0 33 -21.5 46.5t-79.5 13.5q-49 0 -139 -14l-14 69q93 19 156 19q92 0 138 -30t46 -104v-16q0 -41 -19 -63t-57 -31q39 -6 62 -32.5t23 -69.5v-28q0 -137 -202 -137
q-72 0 -155 16l13 72q82 -14 142 -14q116 0 116 63zM958 168v101h84v-101h63v-74h-63v-94h-84v94h-256v74l257 328h104l-261 -328h156z" />
    <glyph glyph-name="questiondown" unicode="&#xbf;" horiz-adv-x="374" 
d="M167 354h84v-48q0 -48 -26.5 -95t-57.5 -78.5t-57.5 -72.5t-26.5 -78q0 -60 30.5 -81t93.5 -21q80 0 142 19l15 -71q-105 -24 -157 -24q-103 0 -157.5 37t-54.5 141q0 37 17.5 72.5t43 64l51 57t43 62.5t17.5 68v48zM168 539h83v-107h-83v107z" />
    <glyph glyph-name="Agrave" unicode="&#xc0;" horiz-adv-x="600" 
d="M582 0h-96l-57 186h-259l-57 -186h-95l246 719h71zM300 612l-107 -351h213zM265 770l-143 146l100 13l110 -152z" />
    <glyph glyph-name="Aacute" unicode="&#xc1;" horiz-adv-x="600" 
d="M582 0h-96l-57 186h-259l-57 -186h-95l246 719h71zM300 612l-107 -351h213zM336 770h-77l116 190h105z" />
    <glyph glyph-name="Acircumflex" unicode="&#xc2;" horiz-adv-x="600" 
d="M582 0h-96l-57 186h-259l-57 -186h-95l246 719h71zM300 612l-107 -351h213zM422 760l-122 72l-121 -72l-22 26l143 137l144 -137z" />
    <glyph glyph-name="Atilde" unicode="&#xc3;" horiz-adv-x="600" 
d="M582 0h-96l-57 186h-259l-57 -186h-95l246 719h71zM300 612l-107 -351h213zM201 765l-46 24q27 56 81 67q31 4 63.5 -12.5t56.5 -16.5q27 -1 50 30l45 -20q-30 -62 -84 -71q-30 -4 -62.5 12.5t-56.5 16.5q-25 2 -47 -30z" />
    <glyph glyph-name="Adieresis" unicode="&#xc4;" horiz-adv-x="600" 
d="M582 0h-96l-57 186h-259l-57 -186h-95l246 719h71zM300 612l-107 -351h213zM245 770h-83v119h83v-119zM437 770h-83v119h83v-119z" />
    <glyph glyph-name="Aring" unicode="&#xc5;" horiz-adv-x="600" 
d="M582 0h-96l-57 186h-259l-57 -186h-95l246 719h71zM300 612l-107 -351h213zM409 866q0 -45 -31 -72.5t-78 -27.5t-78 27.5t-31 72.5t31 73t78 28t78 -28t31 -73zM354 866q0 23 -15.5 37.5t-38.5 14.5t-38.5 -14.5t-15.5 -37.5t15.5 -37t38.5 -14t38.5 14t15.5 37z" />
    <glyph glyph-name="AE" unicode="&#xc6;" horiz-adv-x="984" 
d="M938 0h-429v180h-286l-112 -180h-95l453 719h469v-75h-340v-237h315v-76h-315v-256h340v-75zM270 255h239v383z" />
    <glyph glyph-name="Ccedilla" unicode="&#xc7;" horiz-adv-x="540" 
d="M272 -68l30 59q-129 5 -188 66t-59 200v206q0 147 67 206.5t214 59.5h12q84 0 159 -26l-17 -71q-74 22 -142 22h-12q-107 0 -148.5 -42.5t-41.5 -148.5v-206q0 -106 41.5 -148.5t148.5 -42.5h12q64 0 142 21l17 -70q-73 -27 -159 -27h-8l-19 -33q38 -1 67.5 -20t29.5 -53
q0 -45 -38.5 -66.5t-85 -19.5t-80.5 19l17 31q17 -11 46 -14t54 8.5t25 40.5q0 49 -84 49z" />
    <glyph glyph-name="Egrave" unicode="&#xc8;" horiz-adv-x="541" 
d="M495 0h-429v719h429v-75h-340v-237h315v-76h-315v-256h340v-75zM255 770l-143 146l100 13l110 -152z" />
    <glyph glyph-name="Eacute" unicode="&#xc9;" horiz-adv-x="541" 
d="M495 0h-429v719h429v-75h-340v-237h315v-76h-315v-256h340v-75zM325 770h-77l116 190h105z" />
    <glyph glyph-name="Ecircumflex" unicode="&#xca;" horiz-adv-x="541" 
d="M495 0h-429v719h429v-75h-340v-237h315v-76h-315v-256h340v-75zM411 760l-122 72l-121 -72l-22 26l143 137l144 -137z" />
    <glyph glyph-name="Edieresis" unicode="&#xcb;" horiz-adv-x="541" 
d="M495 0h-429v719h429v-75h-340v-237h315v-76h-315v-256h340v-75zM235 770h-83v119h83v-119zM427 770h-83v119h83v-119z" />
    <glyph glyph-name="Igrave" unicode="&#xcc;" horiz-adv-x="221" 
d="M155 0h-89v719h89v-719zM75 770l-143 146l100 13l110 -152z" />
    <glyph glyph-name="Iacute" unicode="&#xcd;" horiz-adv-x="221" 
d="M155 0h-89v719h89v-719zM146 770h-77l116 190h105z" />
    <glyph glyph-name="Icircumflex" unicode="&#xce;" horiz-adv-x="221" 
d="M155 0h-89v719h89v-719zM232 760l-122 72l-121 -72l-22 26l143 137l144 -137z" />
    <glyph glyph-name="Idieresis" unicode="&#xcf;" horiz-adv-x="221" 
d="M155 0h-89v719h89v-719zM55 770h-83v119h83v-119zM247 770h-83v119h83v-119z" />
    <glyph glyph-name="Eth" unicode="&#xd0;" horiz-adv-x="665" 
d="M344 0h-258v315h-76v79h76v325h258q154 0 210 -59.5t56 -205.5v-189q0 -150 -57.5 -207.5t-208.5 -57.5zM248 315h-73v-240h157q108 0 147 44t39 145v191q0 101 -39 145t-147 44h-157v-250h73v-79z" />
    <glyph glyph-name="Ntilde" unicode="&#xd1;" horiz-adv-x="646" 
d="M66 719h87l341 -571v571h87v-719h-87l-341 567v-567h-87v719zM222 765l-46 24q27 56 81 67q31 4 63.5 -12.5t56.5 -16.5q27 -1 50 30l45 -20q-30 -62 -84 -71q-30 -4 -62.5 12.5t-56.5 16.5q-25 2 -47 -30z" />
    <glyph glyph-name="Ograve" unicode="&#xd2;" horiz-adv-x="679" 
d="M346 -10h-14q-145 0 -211 60t-66 207v205q0 149 65 208t212 59h14q145 0 211 -60t66 -207v-205q0 -147 -66 -207t-211 -60zM532 257v205q0 106 -41 149t-145 43h-14q-104 0 -145 -43t-41 -149v-205q0 -106 41 -148.5t145 -42.5h14q104 0 145 42.5t41 148.5zM304 770
l-143 146l100 13l110 -152z" />
    <glyph glyph-name="Oacute" unicode="&#xd3;" horiz-adv-x="679" 
d="M346 -10h-14q-145 0 -211 60t-66 207v205q0 149 65 208t212 59h14q145 0 211 -60t66 -207v-205q0 -147 -66 -207t-211 -60zM532 257v205q0 106 -41 149t-145 43h-14q-104 0 -145 -43t-41 -149v-205q0 -106 41 -148.5t145 -42.5h14q104 0 145 42.5t41 148.5zM375 770h-77
l116 190h105z" />
    <glyph glyph-name="Ocircumflex" unicode="&#xd4;" horiz-adv-x="679" 
d="M346 -10h-14q-145 0 -211 60t-66 207v205q0 149 65 208t212 59h14q145 0 211 -60t66 -207v-205q0 -147 -66 -207t-211 -60zM532 257v205q0 106 -41 149t-145 43h-14q-104 0 -145 -43t-41 -149v-205q0 -106 41 -148.5t145 -42.5h14q104 0 145 42.5t41 148.5zM461 760
l-122 72l-121 -72l-22 26l143 137l144 -137z" />
    <glyph glyph-name="Otilde" unicode="&#xd5;" horiz-adv-x="679" 
d="M346 -10h-14q-145 0 -211 60t-66 207v205q0 149 65 208t212 59h14q145 0 211 -60t66 -207v-205q0 -147 -66 -207t-211 -60zM532 257v205q0 106 -41 149t-145 43h-14q-104 0 -145 -43t-41 -149v-205q0 -106 41 -148.5t145 -42.5h14q104 0 145 42.5t41 148.5zM240 765
l-46 24q27 56 81 67q31 4 63.5 -12.5t56.5 -16.5q27 -1 50 30l45 -20q-30 -62 -84 -71q-30 -4 -62.5 12.5t-56.5 16.5q-25 2 -47 -30z" />
    <glyph glyph-name="Odieresis" unicode="&#xd6;" horiz-adv-x="679" 
d="M346 -10h-14q-145 0 -211 60t-66 207v205q0 149 65 208t212 59h14q145 0 211 -60t66 -207v-205q0 -147 -66 -207t-211 -60zM532 257v205q0 106 -41 149t-145 43h-14q-104 0 -145 -43t-41 -149v-205q0 -106 41 -148.5t145 -42.5h14q104 0 145 42.5t41 148.5zM284 770h-83
v119h83v-119zM476 770h-83v119h83v-119z" />
    <glyph glyph-name="multiply" unicode="&#xd7;" horiz-adv-x="579" 
d="M475 36l-186 182l-188 -182l-51 48l187 182l-186 183l51 48l187 -182l188 182l52 -48l-187 -183l185 -181z" />
    <glyph glyph-name="Oslash" unicode="&#xd8;" horiz-adv-x="694" 
d="M218 -51h-90l30 76q-99 56 -99 232v205q0 149 65 208t212 59h14q51 0 89 -7l22 54h90l-32 -79q108 -55 108 -235v-205q0 -147 -66 -207t-211 -60h-14q-52 0 -98 8zM536 257v205q0 114 -49 156l-220 -547q33 -5 69 -5h14q104 0 145 42.5t41 148.5zM150 257q0 -108 42 -150
l218 543q-24 4 -60 4h-14q-104 0 -145 -43t-41 -149v-205z" />
    <glyph glyph-name="Ugrave" unicode="&#xd9;" horiz-adv-x="665" 
d="M337 -10h-8q-140 0 -204.5 63t-64.5 216v450h89v-451q0 -110 40.5 -156.5t139.5 -46.5h8q99 0 139.5 46.5t40.5 156.5v451h89v-450q0 -153 -64.5 -216t-204.5 -63zM296 770l-143 146l100 13l110 -152z" />
    <glyph glyph-name="Uacute" unicode="&#xda;" horiz-adv-x="665" 
d="M337 -10h-8q-140 0 -204.5 63t-64.5 216v450h89v-451q0 -110 40.5 -156.5t139.5 -46.5h8q99 0 139.5 46.5t40.5 156.5v451h89v-450q0 -153 -64.5 -216t-204.5 -63zM367 770h-77l116 190h105z" />
    <glyph glyph-name="Ucircumflex" unicode="&#xdb;" horiz-adv-x="665" 
d="M337 -10h-8q-140 0 -204.5 63t-64.5 216v450h89v-451q0 -110 40.5 -156.5t139.5 -46.5h8q99 0 139.5 46.5t40.5 156.5v451h89v-450q0 -153 -64.5 -216t-204.5 -63zM453 760l-122 72l-121 -72l-22 26l143 137l144 -137z" />
    <glyph glyph-name="Udieresis" unicode="&#xdc;" horiz-adv-x="665" 
d="M337 -10h-8q-140 0 -204.5 63t-64.5 216v450h89v-451q0 -110 40.5 -156.5t139.5 -46.5h8q99 0 139.5 46.5t40.5 156.5v451h89v-450q0 -153 -64.5 -216t-204.5 -63zM276 770h-83v119h83v-119zM468 770h-83v119h83v-119z" />
    <glyph glyph-name="Yacute" unicode="&#xdd;" horiz-adv-x="570" 
d="M330 0h-89v289l-227 431h99l173 -353l171 353h98l-225 -431v-289zM322 770h-77l116 190h105z" />
    <glyph glyph-name="Thorn" unicode="&#xde;" horiz-adv-x="560" 
d="M155 0h-89v719h89v-135h152q131 0 187.5 -44t56.5 -171q0 -126 -56.5 -170.5t-187.5 -44.5h-152v-154zM155 229h152q89 0 120.5 27.5t31.5 112.5t-31.5 112.5t-120.5 27.5h-152v-280z" />
    <glyph glyph-name="germandbls" unicode="&#xdf;" horiz-adv-x="558" 
d="M183 16l16 65q81 -24 142 -24q109 0 109 80q0 28 -26 49.5t-63.5 37.5t-75 35.5t-63.5 54.5t-26 83q0 42 11.5 72t31.5 44.5t40.5 20.5t43.5 6q35 0 50 19t15 57q0 10 -4 20.5t-15 22.5t-35.5 20t-60.5 8q-74 0 -98.5 -29.5t-24.5 -81.5v-576h-84v576q0 86 54 131.5
t151 45.5q90 0 145.5 -39t55.5 -98q0 -18 -1 -31.5t-8 -36t-19.5 -36.5t-38.5 -25.5t-62 -11.5q-29 0 -46.5 -17.5t-17.5 -52.5q0 -28 26 -49.5t63.5 -38t75 -36t63.5 -54t26 -82.5q0 -81 -53.5 -118t-134.5 -37q-74 0 -162 26z" />
    <glyph glyph-name="agrave" unicode="&#xe0;" horiz-adv-x="477" 
d="M332 277v79q0 62 -24 89t-82 27q-46 0 -139 -24l-17 62q90 30 168 30q97 0 137.5 -46.5t40.5 -137.5v-296q0 -36 -84.5 -53t-165.5 -17q-42 0 -70 12.5t-42 37t-19 51.5t-5 65q0 75 26.5 117t101.5 42q93 0 174 -38zM332 78v141q0 15 -52.5 27.5t-95.5 12.5
q-69 0 -69 -104q0 -53 15 -80.5t54 -27.5q55 0 101.5 8t46.5 23zM203 590l-143 146l100 13l110 -152z" />
    <glyph glyph-name="aacute" unicode="&#xe1;" horiz-adv-x="477" 
d="M332 277v79q0 62 -24 89t-82 27q-46 0 -139 -24l-17 62q90 30 168 30q97 0 137.5 -46.5t40.5 -137.5v-296q0 -36 -84.5 -53t-165.5 -17q-42 0 -70 12.5t-42 37t-19 51.5t-5 65q0 75 26.5 117t101.5 42q93 0 174 -38zM332 78v141q0 15 -52.5 27.5t-95.5 12.5
q-69 0 -69 -104q0 -53 15 -80.5t54 -27.5q55 0 101.5 8t46.5 23zM274 590h-77l116 190h105z" />
    <glyph glyph-name="acircumflex" unicode="&#xe2;" horiz-adv-x="477" 
d="M332 277v79q0 62 -24 89t-82 27q-46 0 -139 -24l-17 62q90 30 168 30q97 0 137.5 -46.5t40.5 -137.5v-296q0 -36 -84.5 -53t-165.5 -17q-42 0 -70 12.5t-42 37t-19 51.5t-5 65q0 75 26.5 117t101.5 42q93 0 174 -38zM332 78v141q0 15 -52.5 27.5t-95.5 12.5
q-69 0 -69 -104q0 -53 15 -80.5t54 -27.5q55 0 101.5 8t46.5 23zM360 580l-122 72l-121 -72l-22 26l143 137l144 -137z" />
    <glyph glyph-name="atilde" unicode="&#xe3;" horiz-adv-x="477" 
d="M332 277v79q0 62 -24 89t-82 27q-46 0 -139 -24l-17 62q90 30 168 30q97 0 137.5 -46.5t40.5 -137.5v-296q0 -36 -84.5 -53t-165.5 -17q-42 0 -70 12.5t-42 37t-19 51.5t-5 65q0 75 26.5 117t101.5 42q93 0 174 -38zM332 78v141q0 15 -52.5 27.5t-95.5 12.5
q-69 0 -69 -104q0 -53 15 -80.5t54 -27.5q55 0 101.5 8t46.5 23zM139 585l-46 24q27 56 81 67q31 4 63.5 -12.5t56.5 -16.5q27 -1 50 30l45 -20q-30 -62 -84 -71q-30 -4 -62.5 12.5t-56.5 16.5q-25 2 -47 -30z" />
    <glyph glyph-name="adieresis" unicode="&#xe4;" horiz-adv-x="477" 
d="M332 277v79q0 62 -24 89t-82 27q-46 0 -139 -24l-17 62q90 30 168 30q97 0 137.5 -46.5t40.5 -137.5v-296q0 -36 -84.5 -53t-165.5 -17q-42 0 -70 12.5t-42 37t-19 51.5t-5 65q0 75 26.5 117t101.5 42q93 0 174 -38zM332 78v141q0 15 -52.5 27.5t-95.5 12.5
q-69 0 -69 -104q0 -53 15 -80.5t54 -27.5q55 0 101.5 8t46.5 23zM183 590h-83v119h83v-119zM375 590h-83v119h83v-119z" />
    <glyph glyph-name="aring" unicode="&#xe5;" horiz-adv-x="477" 
d="M332 277v79q0 62 -24 89t-82 27q-46 0 -139 -24l-17 62q90 30 168 30q97 0 137.5 -46.5t40.5 -137.5v-296q0 -36 -84.5 -53t-165.5 -17q-42 0 -70 12.5t-42 37t-19 51.5t-5 65q0 75 26.5 117t101.5 42q93 0 174 -38zM332 78v141q0 15 -52.5 27.5t-95.5 12.5
q-69 0 -69 -104q0 -53 15 -80.5t54 -27.5q55 0 101.5 8t46.5 23zM347 686q0 -45 -31 -72.5t-78 -27.5t-78 27.5t-31 72.5t31 73t78 28t78 -28t31 -73zM292 686q0 23 -15.5 37.5t-38.5 14.5t-38.5 -14.5t-15.5 -37.5t15.5 -37t38.5 -14t38.5 14t15.5 37z" />
    <glyph glyph-name="ae" unicode="&#xe6;" horiz-adv-x="767" 
d="M706 85l17 -62q-84 -35 -180 -35q-99 0 -149 41q-33 -20 -102 -29.5t-126 -9.5q-80 0 -107.5 43t-27.5 123q0 74 26 116.5t101 42.5q92 0 175 -38v79q0 62 -24.5 89t-81.5 27q-47 0 -140 -24l-16 62q88 30 167 30q101 0 143 -54q50 54 190 54q90 0 121 -40.5t31 -113.5
v-63q0 -92 -304 -95v-25q0 -71 25 -109.5t99 -38.5q85 0 163 30zM333 78v141q0 15 -53 27.5t-96 12.5q-38 0 -53 -27t-15 -77q0 -53 14.5 -80.5t53.5 -27.5q56 0 102.5 8t46.5 23zM638 335v50q0 47 -11.5 69.5t-47.5 22.5q-85 0 -122.5 -27.5t-37.5 -106.5v-69q219 5 219 61
z" />
    <glyph glyph-name="ccedilla" unicode="&#xe7;" horiz-adv-x="409" 
d="M170 -68l30 59q-82 10 -114.5 64.5t-32.5 155.5v106q0 113 42 168t148 55q70 0 126 -16l-13 -62q-57 11 -101 11q-71 0 -94.5 -39t-23.5 -117v-106q0 -78 23.5 -117t94.5 -39q44 0 101 11l13 -62q-56 -16 -126 -16h-6l-18 -31q38 -1 67.5 -20t29.5 -53q0 -45 -38.5 -66.5
t-85 -19.5t-80.5 19l17 31q17 -11 46 -14t54 8.5t25 40.5q0 49 -84 49z" />
    <glyph glyph-name="egrave" unicode="&#xe8;" horiz-adv-x="486" 
d="M426 87l17 -61q-86 -36 -180 -36q-116 0 -162.5 55t-46.5 168v95q0 136 53 184t184 48q88 0 118 -40.5t30 -113.5v-63q0 -92 -301 -95v-23q0 -70 25.5 -109t99.5 -39q85 0 163 30zM358 335v50q0 47 -11.5 69.5t-47.5 22.5q-86 0 -123.5 -27.5t-37.5 -106.5v-69
q220 5 220 61zM242 587l-143 146l100 13l110 -152z" />
    <glyph glyph-name="eacute" unicode="&#xe9;" horiz-adv-x="486" 
d="M426 87l17 -61q-86 -36 -180 -36q-116 0 -162.5 55t-46.5 168v95q0 136 53 184t184 48q88 0 118 -40.5t30 -113.5v-63q0 -92 -301 -95v-23q0 -70 25.5 -109t99.5 -39q85 0 163 30zM358 335v50q0 47 -11.5 69.5t-47.5 22.5q-86 0 -123.5 -27.5t-37.5 -106.5v-69
q220 5 220 61zM313 587h-77l116 190h105z" />
    <glyph glyph-name="ecircumflex" unicode="&#xea;" horiz-adv-x="486" 
d="M426 87l17 -61q-86 -36 -180 -36q-116 0 -162.5 55t-46.5 168v95q0 136 53 184t184 48q88 0 118 -40.5t30 -113.5v-63q0 -92 -301 -95v-23q0 -70 25.5 -109t99.5 -39q85 0 163 30zM358 335v50q0 47 -11.5 69.5t-47.5 22.5q-86 0 -123.5 -27.5t-37.5 -106.5v-69
q220 5 220 61zM398 577l-122 72l-121 -72l-22 26l143 137l144 -137z" />
    <glyph glyph-name="edieresis" unicode="&#xeb;" horiz-adv-x="486" 
d="M426 87l17 -61q-86 -36 -180 -36q-116 0 -162.5 55t-46.5 168v95q0 136 53 184t184 48q88 0 118 -40.5t30 -113.5v-63q0 -92 -301 -95v-23q0 -70 25.5 -109t99.5 -39q85 0 163 30zM358 335v50q0 47 -11.5 69.5t-47.5 22.5q-86 0 -123.5 -27.5t-37.5 -106.5v-69
q220 5 220 61zM222 587h-83v119h83v-119zM414 587h-83v119h83v-119z" />
    <glyph glyph-name="igrave" unicode="&#xec;" horiz-adv-x="243" 
d="M233 67l14 -61q-45 -16 -78 -16q-51 0 -81 31t-30 98v411h85v-408q0 -64 45 -64q23 0 45 9zM65 590l-143 146l100 13l110 -152z" />
    <glyph glyph-name="iacute" unicode="&#xed;" horiz-adv-x="243" 
d="M233 67l14 -61q-45 -16 -78 -16q-51 0 -81 31t-30 98v411h85v-408q0 -64 45 -64q23 0 45 9zM136 590h-77l116 190h105z" />
    <glyph glyph-name="icircumflex" unicode="&#xee;" horiz-adv-x="243" 
d="M233 67l14 -61q-45 -16 -78 -16q-51 0 -81 31t-30 98v411h85v-408q0 -64 45 -64q23 0 45 9zM222 580l-122 72l-121 -72l-22 26l143 137l144 -137z" />
    <glyph glyph-name="idieresis" unicode="&#xef;" horiz-adv-x="243" 
d="M233 67l14 -61q-45 -16 -78 -16q-51 0 -81 31t-30 98v411h85v-408q0 -64 45 -64q23 0 45 9zM46 590h-83v119h83v-119zM238 590h-83v119h83v-119z" />
    <glyph glyph-name="eth" unicode="&#xf0;" horiz-adv-x="645" 
d="M137 663l22 67q61 -19 100 -35l34 69l53 -24l-34 -69q268 -136 279 -411q1 -5 1 -13v-35q0 -113 -65.5 -167.5t-200.5 -54.5h-7q-135 0 -200.5 54.5t-65.5 167.5v35q0 116 59 169.5t183 53.5h7q101 0 181 -51q-68 118 -202 188l-31 -63l-53 23l31 64q-35 15 -91 32z
M319 65h7q96 0 137 38.5t41 109.5v34q0 75 -40.5 111.5t-137.5 36.5h-7q-98 0 -138 -36.5t-40 -111.5v-34q0 -71 41 -109.5t137 -38.5z" />
    <glyph glyph-name="ntilde" unicode="&#xf1;" horiz-adv-x="515" 
d="M452 0h-85v356q0 29 -1.5 46t-7 35.5t-17.5 27t-32 8.5q-65 0 -113.5 -15.5t-48.5 -34.5v-423h-85v445q0 30 78.5 62.5t182.5 32.5q35 0 60 -10.5t38 -25.5t20.5 -41.5t9 -49t1.5 -57.5v-356zM175 585l-46 24q27 56 81 67q31 4 63.5 -12.5t56.5 -16.5q27 -1 50 30l45 -20
q-30 -62 -84 -71q-30 -4 -62.5 12.5t-56.5 16.5q-25 2 -47 -30z" />
    <glyph glyph-name="ograve" unicode="&#xf2;" horiz-adv-x="504" 
d="M450 385v-240q0 -80 -48 -117.5t-150 -37.5q-101 0 -149 37.5t-48 117.5v240q0 80 48 117.5t149 37.5q102 0 150 -37.5t48 -117.5zM366 146v239q0 92 -114 92q-113 0 -113 -92v-239q0 -93 113 -93q114 0 114 93zM217 590l-143 146l100 13l110 -152z" />
    <glyph glyph-name="oacute" unicode="&#xf3;" horiz-adv-x="504" 
d="M450 385v-240q0 -80 -48 -117.5t-150 -37.5q-101 0 -149 37.5t-48 117.5v240q0 80 48 117.5t149 37.5q102 0 150 -37.5t48 -117.5zM366 146v239q0 92 -114 92q-113 0 -113 -92v-239q0 -93 113 -93q114 0 114 93zM288 590h-77l116 190h105z" />
    <glyph glyph-name="ocircumflex" unicode="&#xf4;" horiz-adv-x="504" 
d="M450 385v-240q0 -80 -48 -117.5t-150 -37.5q-101 0 -149 37.5t-48 117.5v240q0 80 48 117.5t149 37.5q102 0 150 -37.5t48 -117.5zM366 146v239q0 92 -114 92q-113 0 -113 -92v-239q0 -93 113 -93q114 0 114 93zM373 580l-122 72l-121 -72l-22 26l143 137l144 -137z" />
    <glyph glyph-name="otilde" unicode="&#xf5;" horiz-adv-x="504" 
d="M450 385v-240q0 -80 -48 -117.5t-150 -37.5q-101 0 -149 37.5t-48 117.5v240q0 80 48 117.5t149 37.5q102 0 150 -37.5t48 -117.5zM366 146v239q0 92 -114 92q-113 0 -113 -92v-239q0 -93 113 -93q114 0 114 93zM153 585l-46 24q27 56 81 67q31 4 63.5 -12.5t56.5 -16.5
q27 -1 50 30l45 -20q-30 -62 -84 -71q-30 -4 -62.5 12.5t-56.5 16.5q-25 2 -47 -30z" />
    <glyph glyph-name="odieresis" unicode="&#xf6;" horiz-adv-x="504" 
d="M450 385v-240q0 -80 -48 -117.5t-150 -37.5q-101 0 -149 37.5t-48 117.5v240q0 80 48 117.5t149 37.5q102 0 150 -37.5t48 -117.5zM366 146v239q0 92 -114 92q-113 0 -113 -92v-239q0 -93 113 -93q114 0 114 93zM197 590h-83v119h83v-119zM389 590h-83v119h83v-119z" />
    <glyph glyph-name="divide" unicode="&#xf7;" horiz-adv-x="408" 
d="M384 242h-359v82h359v-82zM245 0h-84v119h84v-119zM245 441h-84v119h84v-119z" />
    <glyph glyph-name="oslash" unicode="&#xf8;" horiz-adv-x="504" 
d="M110 -52h-56l44 83q-43 39 -43 114v240q0 80 48 117.5t149 37.5q65 0 107 -15l35 65h56l-47 -89q47 -39 47 -116v-240q0 -80 -48 -117.5t-150 -37.5q-65 0 -111 16zM366 146v239q0 19 -5 36l-187 -351q28 -17 78 -17q114 0 114 93zM139 146q0 -18 3 -31l184 347
q-27 15 -74 15q-113 0 -113 -92v-239z" />
    <glyph glyph-name="ugrave" unicode="&#xf9;" 
d="M368 103v427h85v-459q0 -29 -77.5 -55t-183.5 -26q-35 0 -60 10.5t-38 25.5t-20.5 41.5t-9 49t-1.5 57.5v356h85v-356q0 -30 1 -46.5t6 -36.5t17.5 -29t32.5 -9q66 0 114.5 15.5t48.5 34.5zM224 590l-143 146l100 13l110 -152z" />
    <glyph glyph-name="uacute" unicode="&#xfa;" 
d="M368 103v427h85v-459q0 -29 -77.5 -55t-183.5 -26q-35 0 -60 10.5t-38 25.5t-20.5 41.5t-9 49t-1.5 57.5v356h85v-356q0 -30 1 -46.5t6 -36.5t17.5 -29t32.5 -9q66 0 114.5 15.5t48.5 34.5zM294 590h-77l116 190h105z" />
    <glyph glyph-name="ucircumflex" unicode="&#xfb;" 
d="M368 103v427h85v-459q0 -29 -77.5 -55t-183.5 -26q-35 0 -60 10.5t-38 25.5t-20.5 41.5t-9 49t-1.5 57.5v356h85v-356q0 -30 1 -46.5t6 -36.5t17.5 -29t32.5 -9q66 0 114.5 15.5t48.5 34.5zM380 580l-122 72l-121 -72l-22 26l143 137l144 -137z" />
    <glyph glyph-name="udieresis" unicode="&#xfc;" 
d="M368 103v427h85v-459q0 -29 -77.5 -55t-183.5 -26q-35 0 -60 10.5t-38 25.5t-20.5 41.5t-9 49t-1.5 57.5v356h85v-356q0 -30 1 -46.5t6 -36.5t17.5 -29t32.5 -9q66 0 114.5 15.5t48.5 34.5zM204 590h-83v119h83v-119zM396 590h-83v119h83v-119z" />
    <glyph glyph-name="yacute" unicode="&#xfd;" horiz-adv-x="515" 
d="M367 -24v72q-71 -58 -184 -58q-33 0 -56 10t-35.5 25t-19.5 41t-8.5 48t-1.5 56v360h85v-360q0 -30 1 -46t6 -35t17.5 -27.5t32.5 -8.5q61 0 105.5 14.5t57.5 32.5v430h85v-554q0 -114 -25.5 -159.5t-106.5 -45.5q-40 0 -83.5 7.5t-73 15.5t-84.5 25l21 62
q136 -42 208 -42q39 0 49 31t10 106zM295 589h-77l116 190h105z" />
    <glyph glyph-name="thorn" unicode="&#xfe;" horiz-adv-x="510" 
d="M66 -215v934h84v-263q71 58 184 58q33 0 56.5 -10t36 -25t19 -41t8 -47.5t1.5 -56.5v-164q0 -35 -1.5 -56.5t-8 -47.5t-19 -41t-36 -25t-56.5 -10q-113 0 -184 58v-263h-84zM371 170v164q0 29 -1.5 45.5t-6.5 35.5t-17.5 27.5t-32.5 8.5q-61 0 -105 -14t-58 -33v-304
q14 -19 58 -33t105 -14q20 0 32.5 8.5t17.5 27.5t6.5 35.5t1.5 45.5z" />
    <glyph glyph-name="ydieresis" unicode="&#xff;" horiz-adv-x="515" 
d="M367 -24v72q-71 -58 -184 -58q-33 0 -56 10t-35.5 25t-19.5 41t-8.5 48t-1.5 56v360h85v-360q0 -30 1 -46t6 -35t17.5 -27.5t32.5 -8.5q61 0 105.5 14.5t57.5 32.5v430h85v-554q0 -114 -25.5 -159.5t-106.5 -45.5q-40 0 -83.5 7.5t-73 15.5t-84.5 25l21 62
q136 -42 208 -42q39 0 49 31t10 106zM205 589h-83v119h83v-119zM397 589h-83v119h83v-119z" />
    <glyph glyph-name="Amacron" unicode="&#x100;" horiz-adv-x="600" 
d="M582 0h-96l-57 186h-259l-57 -186h-95l246 719h71zM300 612l-107 -351h213zM428 770h-257v65h257v-65z" />
    <glyph glyph-name="amacron" unicode="&#x101;" horiz-adv-x="477" 
d="M332 277v79q0 62 -24 89t-82 27q-46 0 -139 -24l-17 62q90 30 168 30q97 0 137.5 -46.5t40.5 -137.5v-296q0 -36 -84.5 -53t-165.5 -17q-42 0 -70 12.5t-42 37t-19 51.5t-5 65q0 75 26.5 117t101.5 42q93 0 174 -38zM332 78v141q0 15 -52.5 27.5t-95.5 12.5
q-69 0 -69 -104q0 -53 15 -80.5t54 -27.5q55 0 101.5 8t46.5 23zM366 590h-257v65h257v-65z" />
    <glyph glyph-name="Abreve" unicode="&#x102;" horiz-adv-x="600" 
d="M582 0h-96l-57 186h-259l-57 -186h-95l246 719h71zM300 612l-107 -351h213zM378 889h59q0 -61 -39.5 -90t-98.5 -29q-58 0 -98 29t-40 90h59q0 -33 22.5 -50t56.5 -17t56.5 17t22.5 50z" />
    <glyph glyph-name="abreve" unicode="&#x103;" horiz-adv-x="477" 
d="M332 277v79q0 62 -24 89t-82 27q-46 0 -139 -24l-17 62q90 30 168 30q97 0 137.5 -46.5t40.5 -137.5v-296q0 -36 -84.5 -53t-165.5 -17q-42 0 -70 12.5t-42 37t-19 51.5t-5 65q0 75 26.5 117t101.5 42q93 0 174 -38zM332 78v141q0 15 -52.5 27.5t-95.5 12.5
q-69 0 -69 -104q0 -53 15 -80.5t54 -27.5q55 0 101.5 8t46.5 23zM316 709h59q0 -61 -39.5 -90t-98.5 -29q-58 0 -98 29t-40 90h59q0 -33 22.5 -50t56.5 -17t56.5 17t22.5 50z" />
    <glyph glyph-name="Aogonek" unicode="&#x104;" horiz-adv-x="600" 
d="M582 0h-42q-22 -16 -36.5 -39t-16.5 -44q-3 -30 13.5 -50t49.5 -21q46 -2 85 19l10 -13q-48 -46 -111 -48q-61 -2 -95 28t-30 77q3 54 77 91l-57 186h-259l-57 -186h-95l246 719h71zM300 612l-107 -351h213z" />
    <glyph glyph-name="aogonek" unicode="&#x105;" horiz-adv-x="477" 
d="M332 277v79q0 62 -24 89t-82 27q-46 0 -139 -24l-17 62q90 30 168 30q97 0 137.5 -46.5t40.5 -137.5v-296q0 -25 -47 -43q-24 -16 -39.5 -39.5t-17.5 -45.5q-3 -30 13.5 -50t49.5 -21q46 -2 85 19l10 -13q-48 -46 -111 -48q-61 -2 -95 28t-30 77q2 41 48 74
q-57 -8 -116 -8q-42 0 -70 12.5t-42 37t-19 51.5t-5 65q0 75 26.5 117t101.5 42q93 0 174 -38zM332 78v141q0 15 -52.5 27.5t-95.5 12.5q-69 0 -69 -104q0 -53 15 -80.5t54 -27.5q55 0 101.5 8t46.5 23z" />
    <glyph glyph-name="Cacute" unicode="&#x106;" horiz-adv-x="540" 
d="M490 87l17 -70q-73 -27 -159 -27h-12q-147 0 -214 60t-67 207v206q0 147 67 206.5t214 59.5h12q84 0 159 -26l-17 -71q-74 22 -142 22h-12q-107 0 -148.5 -42.5t-41.5 -148.5v-206q0 -106 41.5 -148.5t148.5 -42.5h12q64 0 142 21zM370 770h-77l116 190h105z" />
    <glyph glyph-name="cacute" unicode="&#x107;" horiz-adv-x="409" 
d="M356 66l13 -62q-56 -16 -126 -16q-106 0 -148 55t-42 168v106q0 113 42 168t148 55q70 0 126 -16l-13 -62q-57 11 -101 11q-71 0 -94.5 -39t-23.5 -117v-106q0 -78 23.5 -117t94.5 -39q44 0 101 11zM284 589h-77l116 190h105z" />
    <glyph glyph-name="Ccircumflex" unicode="&#x108;" horiz-adv-x="540" 
d="M490 87l17 -70q-73 -27 -159 -27h-12q-147 0 -214 60t-67 207v206q0 147 67 206.5t214 59.5h12q84 0 159 -26l-17 -71q-74 22 -142 22h-12q-107 0 -148.5 -42.5t-41.5 -148.5v-206q0 -106 41.5 -148.5t148.5 -42.5h12q64 0 142 21zM456 760l-122 72l-121 -72l-22 26
l143 137l144 -137z" />
    <glyph glyph-name="ccircumflex" unicode="&#x109;" horiz-adv-x="409" 
d="M356 66l13 -62q-56 -16 -126 -16q-106 0 -148 55t-42 168v106q0 113 42 168t148 55q70 0 126 -16l-13 -62q-57 11 -101 11q-71 0 -94.5 -39t-23.5 -117v-106q0 -78 23.5 -117t94.5 -39q44 0 101 11zM370 579l-122 72l-121 -72l-22 26l143 137l144 -137z" />
    <glyph glyph-name="Cdotaccent" unicode="&#x10a;" horiz-adv-x="540" 
d="M490 87l17 -70q-73 -27 -159 -27h-12q-147 0 -214 60t-67 207v206q0 147 67 206.5t214 59.5h12q84 0 159 -26l-17 -71q-74 22 -142 22h-12q-107 0 -148.5 -42.5t-41.5 -148.5v-206q0 -106 41.5 -148.5t148.5 -42.5h12q64 0 142 21zM376 770h-83v119h83v-119z" />
    <glyph glyph-name="cdotaccent" unicode="&#x10b;" horiz-adv-x="409" 
d="M356 66l13 -62q-56 -16 -126 -16q-106 0 -148 55t-42 168v106q0 113 42 168t148 55q70 0 126 -16l-13 -62q-57 11 -101 11q-71 0 -94.5 -39t-23.5 -117v-106q0 -78 23.5 -117t94.5 -39q44 0 101 11zM290 589h-83v119h83v-119z" />
    <glyph glyph-name="Ccaron" unicode="&#x10c;" horiz-adv-x="540" 
d="M490 87l17 -70q-73 -27 -159 -27h-12q-147 0 -214 60t-67 207v206q0 147 67 206.5t214 59.5h12q84 0 159 -26l-17 -71q-74 22 -142 22h-12q-107 0 -148.5 -42.5t-41.5 -148.5v-206q0 -106 41.5 -148.5t148.5 -42.5h12q64 0 142 21zM335 849l121 73l22 -30l-143 -133
l-144 133l22 30z" />
    <glyph glyph-name="ccaron" unicode="&#x10d;" horiz-adv-x="409" 
d="M356 66l13 -62q-56 -16 -126 -16q-106 0 -148 55t-42 168v106q0 113 42 168t148 55q70 0 126 -16l-13 -62q-57 11 -101 11q-71 0 -94.5 -39t-23.5 -117v-106q0 -78 23.5 -117t94.5 -39q44 0 101 11zM248 668l121 73l22 -30l-143 -133l-144 133l22 30z" />
    <glyph glyph-name="Dcaron" unicode="&#x10e;" horiz-adv-x="646" 
d="M325 0h-259v719h259q154 0 209.5 -59.5t55.5 -205.5v-189q0 -150 -57 -207.5t-208 -57.5zM499 264v191q0 101 -39 145t-147 44h-158v-569h158q108 0 147 44t39 145zM323 848l121 73l22 -30l-143 -133l-144 133l22 30z" />
    <glyph glyph-name="dcaron" unicode="&#x10f;" horiz-adv-x="696" 
d="M64 174v186q0 35 1.5 56.5t8 47.5t19 41t36 25t56.5 10q113 0 184 -58v263h84v-676q0 -29 -76.5 -54t-183.5 -25q-36 0 -60.5 10.5t-38 25.5t-20.5 42t-8.5 48.5t-1.5 57.5zM148 360v-187q0 -30 1.5 -47t6.5 -36t17.5 -28t32.5 -9q64 0 113.5 15.5t49.5 32.5v329
q-14 19 -58 33t-105 14q-20 0 -32.5 -8.5t-17.5 -27.5t-6.5 -35.5t-1.5 -45.5zM601 489h-64l56 234h97z" />
    <glyph glyph-name="Dcroat" unicode="&#x110;" horiz-adv-x="664" 
d="M343 0h-259v324h-85v65h85v330h259q154 0 209.5 -59.5t55.5 -205.5v-189q0 -150 -57 -207.5t-208 -57.5zM256 324h-83v-249h158q108 0 147 44t39 145v191q0 101 -39 145t-147 44h-158v-255h83v-65z" />
    <glyph glyph-name="dcroat" unicode="&#x111;" horiz-adv-x="512" 
d="M64 174v186q0 35 1.5 56.5t8 47.5t19 41t36 25t56.5 10q113 0 184 -58v101h-80v80h80v82h84v-82h74v-80h-74v-514q0 -29 -76.5 -54t-183.5 -25q-36 0 -60.5 10.5t-38 25.5t-20.5 42t-8.5 48.5t-1.5 57.5zM148 360v-187q0 -30 1.5 -47t6.5 -36t17.5 -28t32.5 -9
q64 0 113.5 15.5t49.5 32.5v329q-14 19 -58 33t-105 14q-20 0 -32.5 -8.5t-17.5 -27.5t-6.5 -35.5t-1.5 -45.5z" />
    <glyph glyph-name="Emacron" unicode="&#x112;" horiz-adv-x="541" 
d="M495 0h-429v719h429v-75h-340v-237h315v-76h-315v-256h340v-75zM418 770h-257v65h257v-65z" />
    <glyph glyph-name="emacron" unicode="&#x113;" horiz-adv-x="486" 
d="M426 87l17 -61q-86 -36 -180 -36q-116 0 -162.5 55t-46.5 168v95q0 136 53 184t184 48q88 0 118 -40.5t30 -113.5v-63q0 -92 -301 -95v-23q0 -70 25.5 -109t99.5 -39q85 0 163 30zM358 335v50q0 47 -11.5 69.5t-47.5 22.5q-86 0 -123.5 -27.5t-37.5 -106.5v-69
q220 5 220 61zM405 587h-257v65h257v-65z" />
    <glyph glyph-name="Ebreve" unicode="&#x114;" horiz-adv-x="541" 
d="M495 0h-429v719h429v-75h-340v-237h315v-76h-315v-256h340v-75zM368 889h59q0 -61 -39.5 -90t-98.5 -29q-58 0 -98 29t-40 90h59q0 -33 22.5 -50t56.5 -17t56.5 17t22.5 50z" />
    <glyph glyph-name="ebreve" unicode="&#x115;" horiz-adv-x="486" 
d="M426 87l17 -61q-86 -36 -180 -36q-116 0 -162.5 55t-46.5 168v95q0 136 53 184t184 48q88 0 118 -40.5t30 -113.5v-63q0 -92 -301 -95v-23q0 -70 25.5 -109t99.5 -39q85 0 163 30zM358 335v50q0 47 -11.5 69.5t-47.5 22.5q-86 0 -123.5 -27.5t-37.5 -106.5v-69
q220 5 220 61zM355 706h59q0 -61 -39.5 -90t-98.5 -29q-58 0 -98 29t-40 90h59q0 -33 22.5 -50t56.5 -17t56.5 17t22.5 50z" />
    <glyph glyph-name="Edotaccent" unicode="&#x116;" horiz-adv-x="541" 
d="M495 0h-429v719h429v-75h-340v-237h315v-76h-315v-256h340v-75zM331 770h-83v119h83v-119z" />
    <glyph glyph-name="edotaccent" unicode="&#x117;" horiz-adv-x="486" 
d="M426 87l17 -61q-86 -36 -180 -36q-116 0 -162.5 55t-46.5 168v95q0 136 53 184t184 48q88 0 118 -40.5t30 -113.5v-63q0 -92 -301 -95v-23q0 -70 25.5 -109t99.5 -39q85 0 163 30zM358 335v50q0 47 -11.5 69.5t-47.5 22.5q-86 0 -123.5 -27.5t-37.5 -106.5v-69
q220 5 220 61zM318 587h-83v119h83v-119z" />
    <glyph glyph-name="Eogonek" unicode="&#x118;" horiz-adv-x="541" 
d="M495 0h-183q-24 -16 -39 -39.5t-17 -45.5q-3 -30 13.5 -50t49.5 -21q46 -2 85 19l10 -13q-48 -46 -111 -48q-61 -2 -95 28t-30 77q3 54 79 93h-191v719h429v-75h-340v-237h315v-76h-315v-256h340v-75z" />
    <glyph glyph-name="eogonek" unicode="&#x119;" horiz-adv-x="486" 
d="M426 87l17 -61q-86 -36 -180 -36h-8q-49 -37 -52 -82q-3 -30 13.5 -50t49.5 -21q46 -2 85 19l10 -13q-48 -46 -111 -48q-61 -2 -95 28t-30 77q3 56 81 94q-84 12 -118 66t-34 153v95q0 136 53 184t184 48q88 0 118 -40.5t30 -113.5v-63q0 -92 -301 -95v-23
q0 -70 25.5 -109t99.5 -39q85 0 163 30zM358 335v50q0 47 -11.5 69.5t-47.5 22.5q-86 0 -123.5 -27.5t-37.5 -106.5v-69q220 5 220 61z" />
    <glyph glyph-name="Ecaron" unicode="&#x11a;" horiz-adv-x="541" 
d="M495 0h-429v719h429v-75h-340v-237h315v-76h-315v-256h340v-75zM290 849l121 73l22 -30l-143 -133l-144 133l22 30z" />
    <glyph glyph-name="ecaron" unicode="&#x11b;" horiz-adv-x="486" 
d="M426 87l17 -61q-86 -36 -180 -36q-116 0 -162.5 55t-46.5 168v95q0 136 53 184t184 48q88 0 118 -40.5t30 -113.5v-63q0 -92 -301 -95v-23q0 -70 25.5 -109t99.5 -39q85 0 163 30zM358 335v50q0 47 -11.5 69.5t-47.5 22.5q-86 0 -123.5 -27.5t-37.5 -106.5v-69
q220 5 220 61zM277 666l121 73l22 -30l-143 -133l-144 133l22 30z" />
    <glyph glyph-name="Gcircumflex" unicode="&#x11c;" horiz-adv-x="622" 
d="M469 83v227h89v-270q-81 -50 -207 -50h-14q-147 0 -214 60t-67 207v206q0 147 67 206.5t214 59.5h12q109 0 205 -42l-17 -71q-96 38 -188 38h-12q-107 0 -148.5 -42.5t-41.5 -148.5v-206q0 -106 41.5 -148.5t148.5 -42.5h14q68 0 118 17zM466 759l-122 72l-121 -72
l-22 26l143 137l144 -137z" />
    <glyph glyph-name="gcircumflex" unicode="&#x11d;" horiz-adv-x="505" 
d="M360 -24v72q-71 -58 -184 -58q-33 0 -56.5 10.5t-36 25.5t-19 41.5t-8 49t-1.5 57.5v182q0 36 1.5 57.5t8.5 48.5t20.5 42t38 25.5t60.5 10.5q107 0 183.5 -26t76.5 -57v-481q0 -114 -25.5 -159.5t-106.5 -45.5q-40 0 -83.5 7.5t-73 15.5t-84.5 25l21 62q136 -42 208 -42
q21 0 33.5 8.5t18 29.5t7 40.5t1.5 58.5zM360 100v329q0 17 -49.5 32.5t-113.5 15.5q-20 0 -32.5 -9.5t-17.5 -31t-6.5 -40t-1.5 -51.5v-175q0 -29 1.5 -45.5t6.5 -35.5t17.5 -27.5t32.5 -8.5q61 0 105 14t58 33zM379 579l-122 72l-121 -72l-22 26l143 137l144 -137z" />
    <glyph glyph-name="Gbreve" unicode="&#x11e;" horiz-adv-x="622" 
d="M469 83v227h89v-270q-81 -50 -207 -50h-14q-147 0 -214 60t-67 207v206q0 147 67 206.5t214 59.5h12q109 0 205 -42l-17 -71q-96 38 -188 38h-12q-107 0 -148.5 -42.5t-41.5 -148.5v-206q0 -106 41.5 -148.5t148.5 -42.5h14q68 0 118 17zM423 888h59q0 -61 -39.5 -90
t-98.5 -29q-58 0 -98 29t-40 90h59q0 -33 22.5 -50t56.5 -17t56.5 17t22.5 50z" />
    <glyph glyph-name="gbreve" unicode="&#x11f;" horiz-adv-x="505" 
d="M360 -24v72q-71 -58 -184 -58q-33 0 -56.5 10.5t-36 25.5t-19 41.5t-8 49t-1.5 57.5v182q0 36 1.5 57.5t8.5 48.5t20.5 42t38 25.5t60.5 10.5q107 0 183.5 -26t76.5 -57v-481q0 -114 -25.5 -159.5t-106.5 -45.5q-40 0 -83.5 7.5t-73 15.5t-84.5 25l21 62q136 -42 208 -42
q21 0 33.5 8.5t18 29.5t7 40.5t1.5 58.5zM360 100v329q0 17 -49.5 32.5t-113.5 15.5q-20 0 -32.5 -9.5t-17.5 -31t-6.5 -40t-1.5 -51.5v-175q0 -29 1.5 -45.5t6.5 -35.5t17.5 -27.5t32.5 -8.5q61 0 105 14t58 33zM335 708h59q0 -61 -39.5 -90t-98.5 -29q-58 0 -98 29t-40 90
h59q0 -33 22.5 -50t56.5 -17t56.5 17t22.5 50z" />
    <glyph glyph-name="Gdotaccent" unicode="&#x120;" horiz-adv-x="622" 
d="M469 83v227h89v-270q-81 -50 -207 -50h-14q-147 0 -214 60t-67 207v206q0 147 67 206.5t214 59.5h12q109 0 205 -42l-17 -71q-96 38 -188 38h-12q-107 0 -148.5 -42.5t-41.5 -148.5v-206q0 -106 41.5 -148.5t148.5 -42.5h14q68 0 118 17zM386 769h-83v119h83v-119z" />
    <glyph glyph-name="gdotaccent" unicode="&#x121;" horiz-adv-x="505" 
d="M360 -24v72q-71 -58 -184 -58q-33 0 -56.5 10.5t-36 25.5t-19 41.5t-8 49t-1.5 57.5v182q0 36 1.5 57.5t8.5 48.5t20.5 42t38 25.5t60.5 10.5q107 0 183.5 -26t76.5 -57v-481q0 -114 -25.5 -159.5t-106.5 -45.5q-40 0 -83.5 7.5t-73 15.5t-84.5 25l21 62q136 -42 208 -42
q21 0 33.5 8.5t18 29.5t7 40.5t1.5 58.5zM360 100v329q0 17 -49.5 32.5t-113.5 15.5q-20 0 -32.5 -9.5t-17.5 -31t-6.5 -40t-1.5 -51.5v-175q0 -29 1.5 -45.5t6.5 -35.5t17.5 -27.5t32.5 -8.5q61 0 105 14t58 33zM299 589h-83v119h83v-119z" />
    <glyph glyph-name="Gcommaaccent" unicode="&#x122;" horiz-adv-x="622" 
d="M469 83v227h89v-270q-81 -50 -207 -50h-14q-147 0 -214 60t-67 207v206q0 147 67 206.5t214 59.5h12q109 0 205 -42l-17 -71q-96 38 -188 38h-12q-107 0 -148.5 -42.5t-41.5 -148.5v-206q0 -106 41.5 -148.5t148.5 -42.5h14q68 0 118 17zM293 -366l-60 20l71 209l83 -23z
" />
    <glyph glyph-name="gcommaaccent" unicode="&#x123;" horiz-adv-x="505" 
d="M360 -24v72q-71 -58 -184 -58q-33 0 -56.5 10.5t-36 25.5t-19 41.5t-8 49t-1.5 57.5v182q0 36 1.5 57.5t8.5 48.5t20.5 42t38 25.5t60.5 10.5q107 0 183.5 -26t76.5 -57v-481q0 -114 -25.5 -159.5t-106.5 -45.5q-40 0 -83.5 7.5t-73 15.5t-84.5 25l21 62q136 -42 208 -42
q21 0 33.5 8.5t18 29.5t7 40.5t1.5 58.5zM360 100v329q0 17 -49.5 32.5t-113.5 15.5q-20 0 -32.5 -9.5t-17.5 -31t-6.5 -40t-1.5 -51.5v-175q0 -29 1.5 -45.5t6.5 -35.5t17.5 -27.5t32.5 -8.5q61 0 105 14t58 33zM272 662h-96l89 236h64z" />
    <glyph glyph-name="Hcircumflex" unicode="&#x124;" horiz-adv-x="664" 
d="M598 0h-89v334h-354v-334h-89v719h89v-309h354v309h89v-719zM456 760l-122 72l-121 -72l-22 26l143 137l144 -137z" />
    <glyph glyph-name="hcircumflex" unicode="&#x125;" horiz-adv-x="519" 
d="M455 0h-84v360q0 29 -1.5 45.5t-6.5 35.5t-17.5 27.5t-32.5 8.5q-59 0 -102.5 -15.5t-60.5 -31.5v-430h-84v745h84v-263q71 58 184 58q33 0 56.5 -10.5t36 -25.5t19 -41.5t8 -49t1.5 -57.5v-356zM232 771l-122 72l-121 -72l-22 26l143 137l144 -137z" />
    <glyph glyph-name="Hbar" unicode="&#x126;" horiz-adv-x="664" 
d="M598 0h-89v334h-354v-334h-89v472h-74v75h74v172h89v-172h354v172h89v-172h74v-75h-74v-472zM155 410h354v62h-354v-62z" />
    <glyph glyph-name="hbar" unicode="&#x127;" horiz-adv-x="519" 
d="M238 586h-88v-104q71 58 184 58q33 0 56.5 -10.5t36 -25.5t19 -41.5t8 -49t1.5 -57.5v-356h-84v360q0 29 -1.5 45.5t-6.5 35.5t-17.5 27.5t-32.5 8.5q-59 0 -102.5 -15.5t-60.5 -31.5v-430h-84v586h-85v65h85v94h84v-94h88v-65z" />
    <glyph glyph-name="Itilde" unicode="&#x128;" horiz-adv-x="221" 
d="M155 0h-89v719h89v-719zM11 765l-46 24q27 56 81 67q31 4 63.5 -12.5t56.5 -16.5q27 -1 50 30l45 -20q-30 -62 -84 -71q-30 -4 -62.5 12.5t-56.5 16.5q-25 2 -47 -30z" />
    <glyph glyph-name="itilde" unicode="&#x129;" horiz-adv-x="243" 
d="M233 67l14 -61q-45 -16 -78 -16q-51 0 -81 31t-30 98v411h85v-408q0 -64 45 -64q23 0 45 9zM1 585l-46 24q27 56 81 67q31 4 63.5 -12.5t56.5 -16.5q27 -1 50 30l45 -20q-30 -62 -84 -71q-30 -4 -62.5 12.5t-56.5 16.5q-25 2 -47 -30z" />
    <glyph glyph-name="Imacron" unicode="&#x12a;" horiz-adv-x="221" 
d="M155 0h-89v719h89v-719zM239 770h-257v65h257v-65z" />
    <glyph glyph-name="imacron" unicode="&#x12b;" horiz-adv-x="243" 
d="M233 67l14 -61q-45 -16 -78 -16q-51 0 -81 31t-30 98v411h85v-408q0 -64 45 -64q23 0 45 9zM229 590h-257v65h257v-65z" />
    <glyph glyph-name="Ibreve" unicode="&#x12c;" horiz-adv-x="221" 
d="M155 0h-89v719h89v-719zM189 889h59q0 -61 -39.5 -90t-98.5 -29q-58 0 -98 29t-40 90h59q0 -33 22.5 -50t56.5 -17t56.5 17t22.5 50z" />
    <glyph glyph-name="ibreve" unicode="&#x12d;" horiz-adv-x="243" 
d="M233 67l14 -61q-45 -16 -78 -16q-51 0 -81 31t-30 98v411h85v-408q0 -64 45 -64q23 0 45 9zM179 709h59q0 -61 -39.5 -90t-98.5 -29q-58 0 -98 29t-40 90h59q0 -33 22.5 -50t56.5 -17t56.5 17t22.5 50z" />
    <glyph glyph-name="Iogonek" unicode="&#x12e;" horiz-adv-x="221" 
d="M155 0h-34q-51 -37 -54 -84q-3 -30 13.5 -50t49.5 -21q46 -2 85 19l10 -13q-48 -46 -111 -48q-61 -2 -95 28t-30 77q4 55 77 92v719h89v-719z" />
    <glyph glyph-name="iogonek" unicode="&#x12f;" horiz-adv-x="243" 
d="M233 66l14 -60q-45 -16 -78 -16q-20 0 -38 5q-44 -36 -47 -78q-3 -30 13.5 -50t49.5 -21q46 -2 85 19l10 -13q-48 -46 -111 -48q-61 -2 -95 28t-30 77q4 62 95 100q-43 32 -43 110v411h85v-408q0 -65 45 -65q23 0 45 9zM143 633h-83v112h83v-112z" />
    <glyph glyph-name="Idotaccent" unicode="&#x130;" horiz-adv-x="221" 
d="M155 0h-89v719h89v-719zM152 770h-83v119h83v-119z" />
    <glyph glyph-name="dotlessi" unicode="&#x131;" horiz-adv-x="243" 
d="M233 67l14 -61q-45 -16 -78 -16q-51 0 -81 31t-30 98v411h85v-408q0 -64 45 -64q23 0 45 9z" />
    <glyph glyph-name="IJ" unicode="&#x132;" horiz-adv-x="443" 
d="M155 0h-89v719h89v-719zM135 -210l15 60q40 -12 70 -12q40 0 53.5 27.5t13.5 99.5v754h89v-742q0 -110 -31.5 -158t-106.5 -48q-33 0 -103 19z" />
    <glyph glyph-name="ij" unicode="&#x133;" horiz-adv-x="431" 
d="M233 66l14 -60q-45 -16 -78 -16q-51 0 -81 31t-30 98v411h85v-408q0 -65 45 -65q23 0 45 9zM143 633h-83v112h83v-112zM297 -44v574h85v-574q0 -98 -31.5 -141.5t-103.5 -43.5q-42 0 -105 20l21 62q49 -15 76 -15q31 0 44.5 26t13.5 92zM382 633h-84v112h84v-112z" />
    <glyph glyph-name="Jcircumflex" unicode="&#x134;" horiz-adv-x="221" 
d="M-86 -210l15 60q40 -12 70 -12q40 0 53.5 27.5t13.5 99.5v754h89v-742q0 -110 -31.5 -158t-106.5 -48q-33 0 -103 19zM233 759l-122 72l-121 -72l-22 26l143 137l144 -137z" />
    <glyph glyph-name="jcircumflex" unicode="&#x135;" horiz-adv-x="188" 
d="M54 -50v580h85v-580q0 -95 -33 -140t-102 -45q-42 0 -105 20l21 70q52 -15 80 -15q29 0 41.5 24.5t12.5 85.5zM216 580l-122 72l-121 -72l-22 26l143 137l144 -137z" />
    <glyph glyph-name="Kcommaaccent" unicode="&#x136;" horiz-adv-x="632" 
d="M155 0h-89v719h89v-325l318 325h105l-329 -336l346 -383h-105l-335 371v-371zM234 -328l-60 20l71 209l83 -23z" />
    <glyph glyph-name="kcommaaccent" unicode="&#x137;" horiz-adv-x="461" 
d="M151 0h-85v745h85v-459l199 244h95l-213 -252l224 -278h-96l-209 269v-269zM212 -328l-60 20l71 209l83 -23z" />
    <glyph glyph-name="Lacute" unicode="&#x139;" 
d="M511 0h-445v719h89v-644h356v-75zM146 770h-77l116 190h105z" />
    <glyph glyph-name="lacute" unicode="&#x13a;" horiz-adv-x="243" 
d="M233 67l14 -61q-45 -16 -78 -16q-51 0 -81 31t-30 98v626h85v-623q0 -64 45 -64q14 0 45 9zM137 770h-77l116 190h105z" />
    <glyph glyph-name="Lcommaaccent" unicode="&#x13b;" 
d="M511 0h-445v719h89v-644h356v-75zM238 -330l-60 20l71 209l83 -23z" />
    <glyph glyph-name="lcommaaccent" unicode="&#x13c;" horiz-adv-x="243" 
d="M233 67l14 -61q-45 -16 -78 -16q-51 0 -81 31t-30 98v626h85v-623q0 -64 45 -64q14 0 45 9zM103 -328l-60 20l71 209l83 -23z" />
    <glyph glyph-name="Lcaron" unicode="&#x13d;" 
d="M511 0h-445v719h89v-644h356v-75zM112 840l121 73l22 -30l-143 -133l-144 133l22 30z" />
    <glyph glyph-name="lcaron" unicode="&#x13e;" horiz-adv-x="391" 
d="M233 67l14 -61q-45 -16 -78 -16q-51 0 -81 31t-30 98v626h85v-623q0 -64 45 -64q14 0 45 9zM308 489h-64l56 234h97z" />
    <glyph glyph-name="Ldot" unicode="&#x13f;" 
d="M511 0h-445v719h89v-644h356v-75zM384 202h-84v119h84v-119z" />
    <glyph glyph-name="ldot" unicode="&#x140;" horiz-adv-x="371" 
d="M233 67l14 -61q-45 -16 -78 -16q-51 0 -81 31t-30 98v626h85v-623q0 -64 45 -64q14 0 45 9zM329 339h-84v119h84v-119z" />
    <glyph glyph-name="Lslash" unicode="&#x141;" horiz-adv-x="562" 
d="M560 0h-445v262l-107 -84l-42 66l149 118v357h89v-287l115 91l43 -66l-158 -125v-257h356v-75z" />
    <glyph glyph-name="lslash" unicode="&#x142;" horiz-adv-x="306" 
d="M283 67l14 -61q-45 -16 -78 -16q-51 0 -81 31t-30 98v201l-109 -86l-41 65l150 118v328h85v-261l118 94l41 -65l-159 -126v-265q0 -64 45 -64q14 0 45 9z" />
    <glyph glyph-name="Nacute" unicode="&#x143;" horiz-adv-x="646" 
d="M66 719h87l341 -571v571h87v-719h-87l-341 567v-567h-87v719zM357 770h-77l116 190h105z" />
    <glyph glyph-name="nacute" unicode="&#x144;" horiz-adv-x="515" 
d="M452 0h-85v356q0 29 -1.5 46t-7 35.5t-17.5 27t-32 8.5q-65 0 -113.5 -15.5t-48.5 -34.5v-423h-85v445q0 30 78.5 62.5t182.5 32.5q35 0 60 -10.5t38 -25.5t20.5 -41.5t9 -49t1.5 -57.5v-356zM310 590h-77l116 190h105z" />
    <glyph glyph-name="Ncommaaccent" unicode="&#x145;" horiz-adv-x="646" 
d="M66 719h87l341 -571v571h87v-719h-87l-341 567v-567h-87v719zM304 -328l-60 20l71 209l83 -23z" />
    <glyph glyph-name="ncommaaccent" unicode="&#x146;" horiz-adv-x="515" 
d="M452 0h-85v356q0 29 -1.5 46t-7 35.5t-17.5 27t-32 8.5q-65 0 -113.5 -15.5t-48.5 -34.5v-423h-85v445q0 30 78.5 62.5t182.5 32.5q35 0 60 -10.5t38 -25.5t20.5 -41.5t9 -49t1.5 -57.5v-356zM239 -328l-60 20l71 209l83 -23z" />
    <glyph glyph-name="Ncaron" unicode="&#x147;" horiz-adv-x="646" 
d="M66 719h87l341 -571v571h87v-719h-87l-341 567v-567h-87v719zM321 849l121 73l22 -30l-143 -133l-144 133l22 30z" />
    <glyph glyph-name="ncaron" unicode="&#x148;" horiz-adv-x="515" 
d="M452 0h-85v356q0 29 -1.5 46t-7 35.5t-17.5 27t-32 8.5q-65 0 -113.5 -15.5t-48.5 -34.5v-423h-85v445q0 30 78.5 62.5t182.5 32.5q35 0 60 -10.5t38 -25.5t20.5 -41.5t9 -49t1.5 -57.5v-356zM274 669l121 73l22 -30l-143 -133l-144 133l22 30z" />
    <glyph glyph-name="napostrophe" unicode="&#x149;" horiz-adv-x="515" 
d="M452 0h-85v356q0 29 -1.5 46t-7 35.5t-17.5 27t-32 8.5q-65 0 -113.5 -15.5t-48.5 -34.5v-423h-85v445q0 30 78.5 62.5t182.5 32.5q35 0 60 -10.5t38 -25.5t20.5 -41.5t9 -49t1.5 -57.5v-356zM227 -300l-60 20l71 209l83 -23z" />
    <glyph glyph-name="Eng" unicode="&#x14a;" horiz-adv-x="646" 
d="M66 719h87l340 -569v38h1v531h87v-742q0 -110 -31.5 -158t-107.5 -48q-33 0 -103 19l16 74q48 -14 78 -14q34 0 47 28t13 99v24l-340 566v-567h-87v719z" />
    <glyph glyph-name="eng" unicode="&#x14b;" horiz-adv-x="515" 
d="M367 -44v400q0 29 -1.5 46t-7 35.5t-17.5 27t-32 8.5q-65 0 -113.5 -15.5t-48.5 -34.5v-423h-85v445q0 30 78.5 62.5t182.5 32.5q35 0 60 -10.5t38 -25.5t20.5 -41.5t9 -49t1.5 -57.5v-400q0 -95 -33 -140t-102 -45q-42 0 -105 20l21 70q53 -15 80 -15q29 0 41.5 24.5
t12.5 85.5z" />
    <glyph glyph-name="Omacron" unicode="&#x14c;" horiz-adv-x="679" 
d="M346 -10h-14q-145 0 -211 60t-66 207v205q0 149 65 208t212 59h14q145 0 211 -60t66 -207v-205q0 -147 -66 -207t-211 -60zM532 257v205q0 106 -41 149t-145 43h-14q-104 0 -145 -43t-41 -149v-205q0 -106 41 -148.5t145 -42.5h14q104 0 145 42.5t41 148.5zM467 770h-257
v65h257v-65z" />
    <glyph glyph-name="omacron" unicode="&#x14d;" horiz-adv-x="504" 
d="M450 385v-240q0 -80 -48 -117.5t-150 -37.5q-101 0 -149 37.5t-48 117.5v240q0 80 48 117.5t149 37.5q102 0 150 -37.5t48 -117.5zM366 146v239q0 92 -114 92q-113 0 -113 -92v-239q0 -93 113 -93q114 0 114 93zM380 590h-257v65h257v-65z" />
    <glyph glyph-name="Obreve" unicode="&#x14e;" horiz-adv-x="679" 
d="M346 -10h-14q-145 0 -211 60t-66 207v205q0 149 65 208t212 59h14q145 0 211 -60t66 -207v-205q0 -147 -66 -207t-211 -60zM532 257v205q0 106 -41 149t-145 43h-14q-104 0 -145 -43t-41 -149v-205q0 -106 41 -148.5t145 -42.5h14q104 0 145 42.5t41 148.5zM417 889h59
q0 -61 -39.5 -90t-98.5 -29q-58 0 -98 29t-40 90h59q0 -33 22.5 -50t56.5 -17t56.5 17t22.5 50z" />
    <glyph glyph-name="obreve" unicode="&#x14f;" horiz-adv-x="504" 
d="M450 385v-240q0 -80 -48 -117.5t-150 -37.5q-101 0 -149 37.5t-48 117.5v240q0 80 48 117.5t149 37.5q102 0 150 -37.5t48 -117.5zM366 146v239q0 92 -114 92q-113 0 -113 -92v-239q0 -93 113 -93q114 0 114 93zM330 709h59q0 -61 -39.5 -90t-98.5 -29q-58 0 -98 29
t-40 90h59q0 -33 22.5 -50t56.5 -17t56.5 17t22.5 50z" />
    <glyph glyph-name="Ohungarumlaut" unicode="&#x150;" horiz-adv-x="679" 
d="M346 -10h-14q-145 0 -211 60t-66 207v205q0 149 65 208t212 59h14q145 0 211 -60t66 -207v-205q0 -147 -66 -207t-211 -60zM532 257v205q0 106 -41 149t-145 43h-14q-104 0 -145 -43t-41 -149v-205q0 -106 41 -148.5t145 -42.5h14q104 0 145 42.5t41 148.5zM589 925
l-124 -137h-75l101 150zM436 928l-122 -140h-74l100 152z" />
    <glyph glyph-name="ohungarumlaut" unicode="&#x151;" horiz-adv-x="504" 
d="M450 385v-240q0 -80 -48 -117.5t-150 -37.5q-101 0 -149 37.5t-48 117.5v240q0 80 48 117.5t149 37.5q102 0 150 -37.5t48 -117.5zM366 146v239q0 92 -114 92q-113 0 -113 -92v-239q0 -93 113 -93q114 0 114 93zM502 745l-124 -137h-75l101 150zM349 748l-122 -140h-74
l100 152z" />
    <glyph glyph-name="OE" unicode="&#x152;" horiz-adv-x="1007" 
d="M963 0h-429v31q-64 -41 -188 -41h-14q-145 0 -211 60t-66 207v205q0 149 65 208t212 59h14q125 0 188 -42v32h429v-75h-340v-237h315v-76h-315v-256h340v-75zM532 257v205q0 106 -41 149t-145 43h-14q-104 0 -145 -43t-41 -149v-205q0 -106 41 -148.5t145 -42.5h14
q104 0 145 42.5t41 148.5z" />
    <glyph glyph-name="oe" unicode="&#x153;" horiz-adv-x="800" 
d="M739 87l17 -61q-86 -36 -180 -36q-109 0 -160 51q-45 -51 -164 -51q-101 0 -149 37.5t-48 117.5v240q0 80 48 117.5t149 37.5q119 0 164 -51q50 51 188 51q88 0 118 -40.5t30 -113.5v-63q0 -92 -301 -95v-23q0 -70 25.5 -109t99.5 -39q85 0 163 30zM366 146v239
q0 92 -114 92q-113 0 -113 -92v-239q0 -93 113 -93q114 0 114 93zM671 335v50q0 47 -11.5 69.5t-47.5 22.5q-86 0 -123.5 -27.5t-37.5 -106.5v-69q220 5 220 61z" />
    <glyph glyph-name="Racute" unicode="&#x154;" horiz-adv-x="599" 
d="M155 0h-89v719h241q131 0 187.5 -44t56.5 -171q0 -101 -35.5 -148t-113.5 -60l150 -296h-96l-142 290h-159v-290zM155 364h152q89 0 120.5 27.5t31.5 112.5t-31.5 112.5t-120.5 27.5h-152v-280zM331 770h-77l116 190h105z" />
    <glyph glyph-name="racute" unicode="&#x155;" horiz-adv-x="313" 
d="M147 0h-85v445q0 28 64.5 61.5t146.5 33.5q29 0 46 -4l-11 -71q-19 4 -45 4q-45 0 -80.5 -15.5t-35.5 -30.5v-423zM241 590h-77l116 190h105z" />
    <glyph glyph-name="Rcommaaccent" unicode="&#x156;" horiz-adv-x="599" 
d="M155 0h-89v719h241q131 0 187.5 -44t56.5 -171q0 -101 -35.5 -148t-113.5 -60l150 -296h-96l-142 290h-159v-290zM155 364h152q89 0 120.5 27.5t31.5 112.5t-31.5 112.5t-120.5 27.5h-152v-280zM281 -328l-60 20l71 209l83 -23z" />
    <glyph glyph-name="rcommaaccent" unicode="&#x157;" horiz-adv-x="313" 
d="M147 0h-85v445q0 28 64.5 61.5t146.5 33.5q29 0 46 -4l-11 -71q-19 4 -45 4q-45 0 -80.5 -15.5t-35.5 -30.5v-423zM139 -328l-60 20l71 209l83 -23z" />
    <glyph glyph-name="Rcaron" unicode="&#x158;" horiz-adv-x="599" 
d="M155 0h-89v719h241q131 0 187.5 -44t56.5 -171q0 -101 -35.5 -148t-113.5 -60l150 -296h-96l-142 290h-159v-290zM155 364h152q89 0 120.5 27.5t31.5 112.5t-31.5 112.5t-120.5 27.5h-152v-280zM295 849l121 73l22 -30l-143 -133l-144 133l22 30z" />
    <glyph glyph-name="rcaron" unicode="&#x159;" horiz-adv-x="313" 
d="M147 0h-85v445q0 28 64.5 61.5t146.5 33.5q29 0 46 -4l-11 -71q-19 4 -45 4q-45 0 -80.5 -15.5t-35.5 -30.5v-423zM205 669l121 73l22 -30l-143 -133l-144 133l22 30z" />
    <glyph glyph-name="Sacute" unicode="&#x15a;" horiz-adv-x="496" 
d="M30 22l18 72q103 -32 178 -32q149 0 149 123q0 40 -34 72.5t-82.5 58.5t-96.5 55t-82 75.5t-34 105.5q0 51 21 88t56.5 55t72 26t78.5 8q83 0 178 -27l-17 -73q-88 28 -153 28q-66 0 -106 -25.5t-40 -76.5q0 -40 34 -73t82 -59l96.5 -55t82.5 -75.5t34 -105.5
q0 -70 -34 -116t-84 -63.5t-114 -17.5q-99 0 -203 32zM292 769h-77l116 190h105z" />
    <glyph glyph-name="sacute" unicode="&#x15b;" horiz-adv-x="391" 
d="M18 22l16 65q81 -30 147 -30q104 0 104 80q0 29 -26 51t-63.5 38t-75 35t-63.5 53.5t-26 82.5q0 55 29 89t65 44t80 10q68 0 146 -22l-16 -65q-72 20 -125 20q-44 0 -70.5 -17t-26.5 -51q0 -29 26.5 -51t63.5 -38.5t74.5 -35.5t64 -53t26.5 -82q0 -88 -49.5 -121.5
t-133.5 -33.5q-76 0 -167 32zM241 590h-77l116 190h105z" />
    <glyph glyph-name="Scircumflex" unicode="&#x15c;" horiz-adv-x="496" 
d="M30 22l18 72q103 -32 178 -32q149 0 149 123q0 40 -34 72.5t-82.5 58.5t-96.5 55t-82 75.5t-34 105.5q0 51 21 88t56.5 55t72 26t78.5 8q83 0 178 -27l-17 -73q-88 28 -153 28q-66 0 -106 -25.5t-40 -76.5q0 -40 34 -73t82 -59l96.5 -55t82.5 -75.5t34 -105.5
q0 -70 -34 -116t-84 -63.5t-114 -17.5q-99 0 -203 32zM377 759l-122 72l-121 -72l-22 26l143 137l144 -137z" />
    <glyph glyph-name="scircumflex" unicode="&#x15d;" horiz-adv-x="391" 
d="M18 22l16 65q81 -30 147 -30q104 0 104 80q0 29 -26 51t-63.5 38t-75 35t-63.5 53.5t-26 82.5q0 55 29 89t65 44t80 10q68 0 146 -22l-16 -65q-72 20 -125 20q-44 0 -70.5 -17t-26.5 -51q0 -29 26.5 -51t63.5 -38.5t74.5 -35.5t64 -53t26.5 -82q0 -88 -49.5 -121.5
t-133.5 -33.5q-76 0 -167 32zM327 580l-122 72l-121 -72l-22 26l143 137l144 -137z" />
    <glyph glyph-name="Scedilla" unicode="&#x15e;" horiz-adv-x="496" 
d="M191 -68l30 58q-89 1 -191 32l18 72q103 -32 178 -32q149 0 149 123q0 40 -34 72.5t-82.5 58.5t-96.5 55t-82 75.5t-34 105.5q0 51 21 88t56.5 55t72 26t78.5 8q83 0 178 -27l-17 -73q-88 28 -153 28q-66 0 -106 -25.5t-40 -76.5q0 -40 34 -73t82 -59l96.5 -55
t82.5 -75.5t34 -105.5q0 -95 -57.5 -142.5t-147.5 -53.5l-20 -34q38 -1 67.5 -20t29.5 -53q0 -45 -38.5 -66.5t-85 -19.5t-80.5 19l17 31q17 -11 46 -14t54 8.5t25 40.5q0 49 -84 49z" />
    <glyph glyph-name="scedilla" unicode="&#x15f;" horiz-adv-x="389" 
d="M135 -72l32 62q-67 2 -150 32l16 65q81 -30 147 -30q104 0 104 80q0 29 -26 51t-63.5 38t-75 35t-63.5 53.5t-26 82.5q0 55 29 89t65 44t80 10q68 0 146 -22l-16 -65q-72 20 -125 20q-44 0 -70.5 -17t-26.5 -51q0 -29 26.5 -51t63.5 -38.5t74.5 -35.5t64 -53t26.5 -82
q0 -147 -161 -154l-22 -38q38 -1 67.5 -20t29.5 -53q0 -45 -38.5 -66.5t-85 -19.5t-80.5 19l17 31q17 -11 46 -14t54 8.5t25 40.5q0 49 -84 49z" />
    <glyph glyph-name="Scaron" unicode="&#x160;" horiz-adv-x="496" 
d="M30 22l18 72q103 -32 178 -32q149 0 149 123q0 40 -34 72.5t-82.5 58.5t-96.5 55t-82 75.5t-34 105.5q0 51 21 88t56.5 55t72 26t78.5 8q83 0 178 -27l-17 -73q-88 28 -153 28q-66 0 -106 -25.5t-40 -76.5q0 -40 34 -73t82 -59l96.5 -55t82.5 -75.5t34 -105.5
q0 -70 -34 -116t-84 -63.5t-114 -17.5q-99 0 -203 32zM256 848l121 73l22 -30l-143 -133l-144 133l22 30z" />
    <glyph glyph-name="scaron" unicode="&#x161;" horiz-adv-x="391" 
d="M18 22l16 65q81 -30 147 -30q104 0 104 80q0 29 -26 51t-63.5 38t-75 35t-63.5 53.5t-26 82.5q0 55 29 89t65 44t80 10q68 0 146 -22l-16 -65q-72 20 -125 20q-44 0 -70.5 -17t-26.5 -51q0 -29 26.5 -51t63.5 -38.5t74.5 -35.5t64 -53t26.5 -82q0 -88 -49.5 -121.5
t-133.5 -33.5q-76 0 -167 32zM206 669l121 73l22 -30l-143 -133l-144 133l22 30z" />
    <glyph glyph-name="Tcommaaccent" unicode="&#x162;" horiz-adv-x="536" 
d="M313 0h-89v644h-217v75h522v-75h-216v-644zM250 -328l-60 20l71 209l83 -23z" />
    <glyph glyph-name="tcommaaccent" unicode="&#x163;" horiz-adv-x="375" 
d="M345 89l20 -69q-76 -30 -126 -30q-51 0 -81 29.5t-30 93.5v349h-60v68h60v114h85v-114h125v-68h-125v-342q0 -54 41 -54q34 0 91 23zM166 -329l-60 20l71 209l83 -23z" />
    <glyph glyph-name="Tcaron" unicode="&#x164;" horiz-adv-x="536" 
d="M313 0h-89v644h-217v75h522v-75h-216v-644zM268 848l121 73l22 -30l-143 -133l-144 133l22 30z" />
    <glyph glyph-name="tcaron" unicode="&#x165;" horiz-adv-x="670" 
d="M345 89l20 -69q-76 -30 -126 -30q-51 0 -81 29.5t-30 93.5v349h-60v68h60v114h85v-114h125v-68h-125v-342q0 -54 41 -54q34 0 91 23zM465 489h-64l56 234h97z" />
    <glyph glyph-name="Tbar" unicode="&#x166;" horiz-adv-x="536" 
d="M313 0h-89v383h-92v72h92v189h-217v75h522v-75h-216v-189h91v-72h-91v-383z" />
    <glyph glyph-name="tbar" unicode="&#x167;" horiz-adv-x="316" 
d="M292 462h-125v-59h125v-65h-125v-218q0 -54 41 -54q34 0 91 23l20 -69q-76 -30 -126 -30q-51 0 -81 29.5t-30 93.5v225h-62v65h62v59h-60v68h60v114h85v-114h125v-68z" />
    <glyph glyph-name="Utilde" unicode="&#x168;" horiz-adv-x="665" 
d="M337 -10h-8q-140 0 -204.5 63t-64.5 216v450h89v-451q0 -110 40.5 -156.5t139.5 -46.5h8q99 0 139.5 46.5t40.5 156.5v451h89v-450q0 -153 -64.5 -216t-204.5 -63zM232 765l-46 24q27 56 81 67q31 4 63.5 -12.5t56.5 -16.5q27 -1 50 30l45 -20q-30 -62 -84 -71
q-30 -4 -62.5 12.5t-56.5 16.5q-25 2 -47 -30z" />
    <glyph glyph-name="utilde" unicode="&#x169;" 
d="M368 103v427h85v-459q0 -29 -77.5 -55t-183.5 -26q-35 0 -60 10.5t-38 25.5t-20.5 41.5t-9 49t-1.5 57.5v356h85v-356q0 -30 1 -46.5t6 -36.5t17.5 -29t32.5 -9q66 0 114.5 15.5t48.5 34.5zM159 585l-46 24q27 56 81 67q31 4 63.5 -12.5t56.5 -16.5q27 -1 50 30l45 -20
q-30 -62 -84 -71q-30 -4 -62.5 12.5t-56.5 16.5q-25 2 -47 -30z" />
    <glyph glyph-name="Umacron" unicode="&#x16a;" horiz-adv-x="665" 
d="M337 -10h-8q-140 0 -204.5 63t-64.5 216v450h89v-451q0 -110 40.5 -156.5t139.5 -46.5h8q99 0 139.5 46.5t40.5 156.5v451h89v-450q0 -153 -64.5 -216t-204.5 -63zM460 770h-257v65h257v-65z" />
    <glyph glyph-name="umacron" unicode="&#x16b;" 
d="M368 103v427h85v-459q0 -29 -77.5 -55t-183.5 -26q-35 0 -60 10.5t-38 25.5t-20.5 41.5t-9 49t-1.5 57.5v356h85v-356q0 -30 1 -46.5t6 -36.5t17.5 -29t32.5 -9q66 0 114.5 15.5t48.5 34.5zM387 590h-257v65h257v-65z" />
    <glyph glyph-name="Ubreve" unicode="&#x16c;" horiz-adv-x="665" 
d="M337 -10h-8q-140 0 -204.5 63t-64.5 216v450h89v-451q0 -110 40.5 -156.5t139.5 -46.5h8q99 0 139.5 46.5t40.5 156.5v451h89v-450q0 -153 -64.5 -216t-204.5 -63zM410 889h59q0 -61 -39.5 -90t-98.5 -29q-58 0 -98 29t-40 90h59q0 -33 22.5 -50t56.5 -17t56.5 17
t22.5 50z" />
    <glyph glyph-name="ubreve" unicode="&#x16d;" 
d="M368 103v427h85v-459q0 -29 -77.5 -55t-183.5 -26q-35 0 -60 10.5t-38 25.5t-20.5 41.5t-9 49t-1.5 57.5v356h85v-356q0 -30 1 -46.5t6 -36.5t17.5 -29t32.5 -9q66 0 114.5 15.5t48.5 34.5zM337 709h59q0 -61 -39.5 -90t-98.5 -29q-58 0 -98 29t-40 90h59q0 -33 22.5 -50
t56.5 -17t56.5 17t22.5 50z" />
    <glyph glyph-name="Uring" unicode="&#x16e;" horiz-adv-x="665" 
d="M337 -10h-8q-140 0 -204.5 63t-64.5 216v450h89v-451q0 -110 40.5 -156.5t139.5 -46.5h8q99 0 139.5 46.5t40.5 156.5v451h89v-450q0 -153 -64.5 -216t-204.5 -63zM440 866q0 -45 -31 -72.5t-78 -27.5t-78 27.5t-31 72.5t31 73t78 28t78 -28t31 -73zM385 866
q0 23 -15.5 37.5t-38.5 14.5t-38.5 -14.5t-15.5 -37.5t15.5 -37t38.5 -14t38.5 14t15.5 37z" />
    <glyph glyph-name="uring" unicode="&#x16f;" 
d="M368 103v427h85v-459q0 -29 -77.5 -55t-183.5 -26q-35 0 -60 10.5t-38 25.5t-20.5 41.5t-9 49t-1.5 57.5v356h85v-356q0 -30 1 -46.5t6 -36.5t17.5 -29t32.5 -9q66 0 114.5 15.5t48.5 34.5zM368 686q0 -45 -31 -72.5t-78 -27.5t-78 27.5t-31 72.5t31 73t78 28t78 -28
t31 -73zM313 686q0 23 -15.5 37.5t-38.5 14.5t-38.5 -14.5t-15.5 -37.5t15.5 -37t38.5 -14t38.5 14t15.5 37z" />
    <glyph glyph-name="Uhungarumlaut" unicode="&#x170;" horiz-adv-x="665" 
d="M337 -10h-8q-140 0 -204.5 63t-64.5 216v450h89v-451q0 -110 40.5 -156.5t139.5 -46.5h8q99 0 139.5 46.5t40.5 156.5v451h89v-450q0 -153 -64.5 -216t-204.5 -63zM582 925l-124 -137h-75l101 150zM429 928l-122 -140h-74l100 152z" />
    <glyph glyph-name="uhungarumlaut" unicode="&#x171;" 
d="M368 103v427h85v-459q0 -29 -77.5 -55t-183.5 -26q-35 0 -60 10.5t-38 25.5t-20.5 41.5t-9 49t-1.5 57.5v356h85v-356q0 -30 1 -46.5t6 -36.5t17.5 -29t32.5 -9q66 0 114.5 15.5t48.5 34.5zM509 745l-124 -137h-75l101 150zM356 748l-122 -140h-74l100 152z" />
    <glyph glyph-name="Uogonek" unicode="&#x172;" horiz-adv-x="665" 
d="M606 269q0 -147 -59.5 -210t-186.5 -68q-25 -16 -41 -40.5t-18 -47.5q-3 -30 13.5 -50t49.5 -21q46 -2 85 19l10 -13q-48 -46 -111 -48q-61 -2 -95 28t-30 77q4 58 84 96q-128 4 -187.5 67t-59.5 211v450h89v-451q0 -110 40.5 -156.5t139.5 -46.5h8q99 0 139.5 46.5
t40.5 156.5v451h89v-450z" />
    <glyph glyph-name="uogonek" unicode="&#x173;" 
d="M368 103v427h85v-459q0 -15 -24.5 -31t-65.5 -28q-30 -31 -33 -65q-3 -30 13.5 -50t49.5 -21q46 -2 85 19l10 -13q-48 -46 -111 -48q-61 -2 -95 28t-30 77q2 29 28 57q-42 -6 -88 -6q-35 0 -60 10.5t-38 25.5t-20.5 41.5t-9 49t-1.5 57.5v356h85v-356q0 -30 1 -46.5
t6 -36.5t17.5 -29t32.5 -9q66 0 114.5 15.5t48.5 34.5z" />
    <glyph glyph-name="Wcircumflex" unicode="&#x174;" horiz-adv-x="977" 
d="M733 -6h-69l-175 576l-175 -576h-69l-228 725h95l166 -591l175 598h70l178 -598l165 591h95zM611 760l-122 72l-121 -72l-22 26l143 137l144 -137z" />
    <glyph glyph-name="wcircumflex" unicode="&#x175;" horiz-adv-x="693" 
d="M522 -6h-73l-102 418l-103 -418h-73l-147 536h89l95 -421l101 427h75l107 -427l89 421h89zM468 580l-122 72l-121 -72l-22 26l143 137l144 -137z" />
    <glyph glyph-name="Ycircumflex" unicode="&#x176;" horiz-adv-x="570" 
d="M330 0h-89v289l-227 431h99l173 -353l171 353h98l-225 -431v-289zM407 760l-122 72l-121 -72l-22 26l143 137l144 -137z" />
    <glyph glyph-name="ycircumflex" unicode="&#x177;" horiz-adv-x="515" 
d="M367 -24v72q-71 -58 -184 -58q-33 0 -56 10t-35.5 25t-19.5 41t-8.5 48t-1.5 56v360h85v-360q0 -30 1 -46t6 -35t17.5 -27.5t32.5 -8.5q61 0 105.5 14.5t57.5 32.5v430h85v-554q0 -114 -25.5 -159.5t-106.5 -45.5q-40 0 -83.5 7.5t-73 15.5t-84.5 25l21 62
q136 -42 208 -42q39 0 49 31t10 106zM381 579l-122 72l-121 -72l-22 26l143 137l144 -137z" />
    <glyph glyph-name="Ydieresis" unicode="&#x178;" horiz-adv-x="570" 
d="M330 0h-89v289l-227 431h99l173 -353l171 353h98l-225 -431v-289zM231 770h-83v119h83v-119zM423 770h-83v119h83v-119z" />
    <glyph glyph-name="Zacute" unicode="&#x179;" horiz-adv-x="541" 
d="M522 0h-505v75l385 569h-357v75h464v-75l-385 -569h398v-75zM307 770h-77l116 190h105z" />
    <glyph glyph-name="zacute" unicode="&#x17a;" horiz-adv-x="409" 
d="M394 0h-377v66l277 398h-256v66h348v-65l-276 -399h284v-66zM251 590h-77l116 190h105z" />
    <glyph glyph-name="Zdotaccent" unicode="&#x17b;" horiz-adv-x="541" 
d="M522 0h-505v75l385 569h-357v75h464v-75l-385 -569h398v-75zM313 770h-83v119h83v-119z" />
    <glyph glyph-name="zdotaccent" unicode="&#x17c;" horiz-adv-x="409" 
d="M394 0h-377v66l277 398h-256v66h348v-65l-276 -399h284v-66zM257 590h-83v119h83v-119z" />
    <glyph glyph-name="Zcaron" unicode="&#x17d;" horiz-adv-x="541" 
d="M522 0h-505v75l385 569h-357v75h464v-75l-385 -569h398v-75zM271 849l121 73l22 -30l-143 -133l-144 133l22 30z" />
    <glyph glyph-name="zcaron" unicode="&#x17e;" horiz-adv-x="409" 
d="M394 0h-377v66l277 398h-256v66h348v-65l-276 -399h284v-66zM215 669l121 73l22 -30l-143 -133l-144 133l22 30z" />
    <glyph glyph-name="florin" unicode="&#x192;" horiz-adv-x="366" 
d="M93 -37v499h-81v68h82v28q0 113 40 156t134 32q37 -3 68 -15l-18 -58q-39 13 -68 13q-46 0 -59.5 -29.5t-13.5 -98.5v-28h115v-68h-115v-499q0 -113 -40 -156t-134 -32q-32 3 -68 15l18 58q39 -13 68 -13q46 0 59 29.5t13 98.5z" />
    <glyph glyph-name="AEacute" unicode="&#x1fc;" horiz-adv-x="984" 
d="M938 0h-429v180h-286l-112 -180h-95l453 719h469v-75h-340v-237h315v-76h-315v-256h340v-75zM270 255h239v383zM591 768h-77l116 190h105z" />
    <glyph glyph-name="aeacute" unicode="&#x1fd;" horiz-adv-x="778" 
d="M706 85l17 -62q-84 -35 -180 -35q-99 0 -149 41q-33 -20 -102 -29.5t-126 -9.5q-80 0 -107.5 43t-27.5 123q0 74 26 116.5t101 42.5q92 0 175 -38v79q0 62 -24.5 89t-81.5 27q-47 0 -140 -24l-16 62q88 30 167 30q101 0 143 -54q50 54 190 54q90 0 121 -40.5t31 -113.5
v-63q0 -92 -304 -95v-25q0 -71 25 -109.5t99 -38.5q85 0 163 30zM333 78v141q0 15 -53 27.5t-96 12.5q-38 0 -53 -27t-15 -77q0 -53 14.5 -80.5t53.5 -27.5q56 0 102.5 8t46.5 23zM638 335v50q0 47 -11.5 69.5t-47.5 22.5q-85 0 -122.5 -27.5t-37.5 -106.5v-69q219 5 219 61
zM426 588h-77l116 190h105z" />
    <glyph glyph-name="Oslashacute" unicode="&#x1fe;" horiz-adv-x="694" 
d="M220 -51h-90l30 75q-101 56 -101 233v205q0 149 65 208t212 59h14q44 0 91 -7l22 54h90l-32 -79q106 -55 106 -235v-205q0 -147 -66 -207t-211 -60h-14q-51 0 -97 8zM536 257v205q0 112 -47 155l-220 -546q32 -5 67 -5h14q104 0 145 42.5t41 148.5zM150 257
q0 -109 43 -151l219 543q-30 5 -62 5h-14q-104 0 -145 -43t-41 -149v-205zM384 769h-77l116 190h105z" />
    <glyph glyph-name="oslashacute" unicode="&#x1ff;" horiz-adv-x="504" 
d="M110 -52h-56l44 83q-43 39 -43 114v240q0 80 48 117.5t149 37.5q65 0 107 -15l35 65h56l-47 -89q47 -39 47 -116v-240q0 -80 -48 -117.5t-150 -37.5q-65 0 -111 16zM366 146v239q0 19 -5 36l-187 -351q28 -17 78 -17q114 0 114 93zM139 146q0 -18 3 -31l184 347
q-27 15 -74 15q-113 0 -113 -92v-239zM288 590h-77l116 190h105z" />
    <glyph glyph-name="Scommaaccent" unicode="&#x218;" horiz-adv-x="496" 
d="M30 22l18 72q103 -32 178 -32q149 0 149 123q0 40 -34 72.5t-82.5 58.5t-96.5 55t-82 75.5t-34 105.5q0 51 21 88t56.5 55t72 26t78.5 8q83 0 178 -27l-17 -73q-88 28 -153 28q-66 0 -106 -25.5t-40 -76.5q0 -40 34 -73t82 -59l96.5 -55t82.5 -75.5t34 -105.5
q0 -70 -34 -116t-84 -63.5t-114 -17.5q-99 0 -203 32zM215 -328l-60 20l71 209l83 -23z" />
    <glyph glyph-name="scommaaccent" unicode="&#x219;" horiz-adv-x="391" 
d="M18 22l16 65q81 -30 147 -30q104 0 104 80q0 29 -26 51t-63.5 38t-75 35t-63.5 53.5t-26 82.5q0 55 29 89t65 44t80 10q68 0 146 -22l-16 -65q-72 20 -125 20q-44 0 -70.5 -17t-26.5 -51q0 -29 26.5 -51t63.5 -38.5t74.5 -35.5t64 -53t26.5 -82q0 -88 -49.5 -121.5
t-133.5 -33.5q-76 0 -167 32zM177 -328l-60 20l71 209l83 -23z" />
    <glyph glyph-name="dotlessj" unicode="&#x237;" horiz-adv-x="188" 
d="M54 -50v580h85v-580q0 -95 -33 -140t-102 -45q-42 0 -105 20l21 70q52 -15 80 -15q29 0 41.5 24.5t12.5 85.5z" />
    <glyph glyph-name="circumflex" unicode="&#x2c6;" horiz-adv-x="371" 
d="M305 580l-122 72l-121 -72l-22 26l143 137l144 -137z" />
    <glyph glyph-name="caron" unicode="&#x2c7;" horiz-adv-x="365" 
d="M183 669l121 73l22 -30l-143 -133l-144 133l22 30z" />
    <glyph glyph-name="breve" unicode="&#x2d8;" horiz-adv-x="504" 
d="M310 709h59q0 -61 -39.5 -90t-98.5 -29q-58 0 -98 29t-40 90h59q0 -33 22.5 -50t56.5 -17t56.5 17t22.5 50z" />
    <glyph glyph-name="dotaccent" unicode="&#x2d9;" horiz-adv-x="208" 
d="M149 590h-83v119h83v-119z" />
    <glyph glyph-name="ring" unicode="&#x2da;" horiz-adv-x="287" 
d="M251 686q0 -45 -31 -72.5t-78 -27.5t-78 27.5t-31 72.5t31 73t78 28t78 -28t31 -73zM196 686q0 23 -15.5 37.5t-38.5 14.5t-38.5 -14.5t-15.5 -37.5t15.5 -37t38.5 -14t38.5 14t15.5 37z" />
    <glyph glyph-name="ogonek" unicode="&#x2db;" horiz-adv-x="242" 
d="M135 28l7 -12q-32 -14 -55.5 -43t-25.5 -56q-3 -30 13.5 -50t49.5 -21q46 -2 85 19l10 -13q-48 -46 -111 -48q-61 -2 -95 28t-30 77q2 35 39.5 67.5t112.5 51.5z" />
    <glyph glyph-name="tilde" unicode="&#x2dc;" horiz-adv-x="337" 
d="M69 585l-46 24q27 56 81 67q31 4 63.5 -12.5t56.5 -16.5q27 -1 50 30l45 -20q-30 -62 -84 -71q-30 -4 -62.5 12.5t-56.5 16.5q-25 2 -47 -30z" />
    <glyph glyph-name="hungarumlaut" unicode="&#x2dd;" horiz-adv-x="402" 
d="M402 745l-124 -137h-75l101 150zM249 748l-122 -140h-74l100 152z" />
    <glyph glyph-name="Wgrave" unicode="&#x1e80;" horiz-adv-x="977" 
d="M733 -6h-69l-175 576l-175 -576h-69l-228 725h95l166 -591l175 598h70l178 -598l165 591h95zM455 770l-143 146l100 13l110 -152z" />
    <glyph glyph-name="wgrave" unicode="&#x1e81;" horiz-adv-x="693" 
d="M522 -6h-73l-102 418l-103 -418h-73l-147 536h89l95 -421l101 427h75l107 -427l89 421h89zM312 590l-143 146l100 13l110 -152z" />
    <glyph glyph-name="Wacute" unicode="&#x1e82;" horiz-adv-x="977" 
d="M733 -6h-69l-175 576l-175 -576h-69l-228 725h95l166 -591l175 598h70l178 -598l165 591h95zM526 770h-77l116 190h105z" />
    <glyph glyph-name="wacute" unicode="&#x1e83;" horiz-adv-x="693" 
d="M522 -6h-73l-102 418l-103 -418h-73l-147 536h89l95 -421l101 427h75l107 -427l89 421h89zM382 590h-77l116 190h105z" />
    <glyph glyph-name="Wdieresis" unicode="&#x1e84;" horiz-adv-x="977" 
d="M733 -6h-69l-175 576l-175 -576h-69l-228 725h95l166 -591l175 598h70l178 -598l165 591h95zM435 770h-83v119h83v-119zM627 770h-83v119h83v-119z" />
    <glyph glyph-name="wdieresis" unicode="&#x1e85;" horiz-adv-x="693" 
d="M522 -6h-73l-102 418l-103 -418h-73l-147 536h89l95 -421l101 427h75l107 -427l89 421h89zM292 590h-83v119h83v-119zM484 590h-83v119h83v-119z" />
    <glyph glyph-name="Ygrave" unicode="&#x1ef2;" horiz-adv-x="570" 
d="M330 0h-89v289l-227 431h99l173 -353l171 353h98l-225 -431v-289zM251 770l-143 146l100 13l110 -152z" />
    <glyph glyph-name="ygrave" unicode="&#x1ef3;" horiz-adv-x="515" 
d="M367 -24v72q-71 -58 -184 -58q-33 0 -56 10t-35.5 25t-19.5 41t-8.5 48t-1.5 56v360h85v-360q0 -30 1 -46t6 -35t17.5 -27.5t32.5 -8.5q61 0 105.5 14.5t57.5 32.5v430h85v-554q0 -114 -25.5 -159.5t-106.5 -45.5q-40 0 -83.5 7.5t-73 15.5t-84.5 25l21 62
q136 -42 208 -42q39 0 49 31t10 106zM225 589l-143 146l100 13l110 -152z" />
    <glyph glyph-name="endash" unicode="&#x2013;" horiz-adv-x="587" 
d="M521 252h-455v80h455v-80z" />
    <glyph glyph-name="emdash" unicode="&#x2014;" horiz-adv-x="864" 
d="M798 252h-732v80h732v-80z" />
    <glyph glyph-name="quoteleft" unicode="&#x2018;" horiz-adv-x="183" 
d="M104 483h-96l89 236h64z" />
    <glyph glyph-name="quoteright" unicode="&#x2019;" horiz-adv-x="184" 
d="M89 489h-64l56 234h97z" />
    <glyph glyph-name="quotesinglbase" unicode="&#x201a;" horiz-adv-x="186" 
d="M93 -145h-66l50 235h99z" />
    <glyph glyph-name="quotedblleft" unicode="&#x201c;" horiz-adv-x="419" 
d="M59 719h96l57 -236h-66zM208 719h96l56 -236h-64z" />
    <glyph glyph-name="quotedblright" unicode="&#x201d;" horiz-adv-x="413" 
d="M265 719h96l-88 -236h-65zM116 719h95l-87 -236h-64z" />
    <glyph glyph-name="quotedblbase" unicode="&#x201e;" horiz-adv-x="402" 
d="M93 -145h-66l50 235h99zM289 -145h-66l50 235h99z" />
    <glyph glyph-name="dagger" unicode="&#x2020;" horiz-adv-x="438" 
d="M262 -182h-86v645h-171v84h171v170h86v-170h171v-84h-171v-645z" />
    <glyph glyph-name="daggerdbl" unicode="&#x2021;" horiz-adv-x="442" 
d="M264 -182h-86v485h-171v80h171v83h-171v81h171v170h86v-170h171v-81h-171v-83h171v-80h-171v-485z" />
    <glyph glyph-name="bullet" unicode="&#x2022;" horiz-adv-x="326" 
d="M261 133h-195v280h195v-280z" />
    <glyph glyph-name="onedotenleader" unicode="&#x2024;" horiz-adv-x="208" 
d="M150 0h-84v119h84v-119z" />
    <glyph glyph-name="twodotenleader" unicode="&#x2025;" horiz-adv-x="416" 
d="M150 0h-84v119h84v-119zM358 0h-83v119h83v-119z" />
    <glyph glyph-name="ellipsis" unicode="&#x2026;" horiz-adv-x="819" 
d="M151 0h-85v119h85v-119zM451 0h-83v119h83v-119zM752 0h-84v119h84v-119z" />
    <glyph glyph-name="perthousand" unicode="&#x2030;" horiz-adv-x="1321" 
d="M347 473q0 -76 -33.5 -112.5t-114.5 -36.5q-80 0 -114 37t-34 112v106q0 76 34 113t114 37q81 0 114.5 -37t33.5 -113v-106zM129 474q0 -49 13.5 -68.5t56.5 -19.5q45 0 58 23.5t13 80.5v88q0 49 -14 69t-57 20q-45 0 -57.5 -23.5t-12.5 -80.5v-89zM277 -12h-94l460 729
h95zM870 140q0 -76 -34 -113t-114 -37q-81 0 -114.5 37t-33.5 113v105q0 76 33.5 113t114.5 37q80 0 114 -37t34 -113v-105zM651 141q0 -49 14 -69t57 -20q45 0 57.5 23.5t12.5 80.5v89q0 49 -13.5 68.5t-56.5 19.5q-45 0 -58 -23.5t-13 -80.5v-88zM1244 140q0 -76 -34 -113
t-114 -37q-81 0 -114.5 37t-33.5 113v105q0 76 33.5 113t114.5 37q80 0 114 -37t34 -113v-105zM1025 141q0 -49 14 -69t57 -20q45 0 57.5 23.5t12.5 80.5v89q0 49 -13.5 68.5t-56.5 19.5q-45 0 -58 -23.5t-13 -80.5v-88z" />
    <glyph glyph-name="guilsinglleft" unicode="&#x2039;" horiz-adv-x="306" 
d="M218 60l-191 221l191 220l55 -48l-143 -172l143 -172z" />
    <glyph glyph-name="guilsinglright" unicode="&#x203a;" horiz-adv-x="305" 
d="M279 281l-191 -221l-55 49l142 172l-143 172l56 48z" />
    <glyph glyph-name="fraction" unicode="&#x2044;" horiz-adv-x="507" 
d="M92 1h-89l421 716h88z" />
    <glyph glyph-name="zerosuperior" unicode="&#x2070;" horiz-adv-x="444" 
d="M220 393q-95 0 -143 48.5t-48 136.5v140q0 186 191 186h5q95 0 142.5 -48t47.5 -138v-140q0 -88 -48 -136.5t-142 -48.5h-5zM220 468h5q56 0 78 29t22 82v138q0 56 -21.5 84t-78.5 28h-5q-58 0 -79.5 -28t-21.5 -84v-138q0 -53 22 -82t79 -29z" />
    <glyph glyph-name="foursuperior" unicode="&#x2074;" horiz-adv-x="421" 
d="M267 568v101h84v-101h63v-74h-63v-94h-84v94h-256v74l257 328h104l-261 -328h156z" />
    <glyph glyph-name="fivesuperior" unicode="&#x2075;" horiz-adv-x="425" 
d="M389 559v-3q0 -162 -211 -162q-64 0 -156 20l17 70q83 -15 134 -15q130 0 130 87v3q0 33 -12.5 50.5t-68.5 31.5t-167 15l38 240h281l-16 -75h-192l-20 -99q137 -3 190 -39t53 -124z" />
    <glyph glyph-name="sixsuperior" unicode="&#x2076;" horiz-adv-x="441" 
d="M331 905l20 -68q-152 -36 -222 -136q54 28 115 28h6q83 0 123 -38t40 -122v-17q0 -83 -46.5 -121t-143.5 -38h-5q-98 0 -144.5 38t-46.5 121v17q5 262 304 336zM218 467h5q59 0 81 22t22 64v15q0 43 -21.5 65t-81.5 22h-5q-60 0 -82 -22t-22 -65v-15q0 -42 22 -64t82 -22
z" />
    <glyph glyph-name="sevensuperior" unicode="&#x2077;" horiz-adv-x="390" 
d="M134 400h-100l256 422h-263l-14 74h367v-74z" />
    <glyph glyph-name="eightsuperior" unicode="&#x2078;" horiz-adv-x="460" 
d="M254 393h-48q-96 0 -136.5 30.5t-40.5 119.5q0 51 20.5 82.5t56.5 39.5q-60 17 -60 105v3q0 75 36.5 103t123.5 28h48q87 0 123.5 -28t36.5 -103v-3q0 -87 -60 -105q36 -8 56.5 -39.5t20.5 -82.5q0 -89 -40.5 -119.5t-136.5 -30.5zM205 464h51q51 0 69.5 16t18.5 65
q0 48 -17.5 65t-72.5 17h-48q-55 0 -72.5 -17.5t-17.5 -64.5q0 -49 18 -65t71 -16zM254 837h-48q-44 0 -60 -13.5t-16 -51.5q0 -39 16 -52.5t60 -13.5h48q44 0 60 13.5t16 52.5q0 38 -16 51.5t-60 13.5z" />
    <glyph glyph-name="ninesuperior" unicode="&#x2079;" horiz-adv-x="441" 
d="M119 391l-20 67q149 35 221 136q-54 -28 -114 -28h-6q-83 0 -123 38t-40 122v17q0 83 46 121.5t144 38.5h5q98 0 144 -38.5t46 -121.5v-11q0 -128 -74.5 -216t-228.5 -125zM232 828h-5q-59 0 -81 -22t-22 -64v-15q0 -43 21.5 -65t81.5 -22h5q60 0 82 22t22 65v15
q0 42 -22.5 64t-81.5 22z" />
    <glyph glyph-name="parenleftsuperior" unicode="&#x207d;" horiz-adv-x="0" 
 />
    <glyph glyph-name="parenrightsuperior" unicode="&#x207e;" horiz-adv-x="0" 
 />
    <glyph glyph-name="zeroinferior" unicode="&#x2080;" horiz-adv-x="444" 
d="M220 -207q-95 0 -143 48.5t-48 136.5v140q0 186 191 186h5q95 0 142.5 -48t47.5 -138v-140q0 -88 -48 -136.5t-142 -48.5h-5zM220 -132h5q56 0 78 29t22 82v138q0 56 -21.5 84t-78.5 28h-5q-58 0 -79.5 -28t-21.5 -84v-138q0 -53 22 -82t79 -29z" />
    <glyph glyph-name="oneinferior" unicode="&#x2081;" horiz-adv-x="223" 
d="M190 -200h-88v421h-44v75h132v-496z" />
    <glyph glyph-name="twoinferior" unicode="&#x2082;" horiz-adv-x="437" 
d="M410 -200h-378v75l52 40l97.5 76.5t67.5 58t50.5 56.5t13.5 44q0 80 -108 80q-73 0 -145 -24l-13 70q82 28 166 28q95 0 142.5 -35.5t47.5 -115.5q0 -27 -13.5 -54.5t-30 -49.5t-55.5 -55.5l-65.5 -54.5l-83.5 -64h255v-75z" />
    <glyph glyph-name="threeinferior" unicode="&#x2083;" horiz-adv-x="401" 
d="M285 -70v28q0 63 -94 63h-47l-10 73h51q91 0 91 60v16q0 33 -21.5 46.5t-79.5 13.5q-49 0 -139 -14l-14 69q93 19 156 19q92 0 138 -30t46 -104v-16q0 -41 -19 -63t-57 -31q39 -6 62 -32.5t23 -69.5v-28q0 -137 -202 -137q-72 0 -155 16l13 72q82 -14 142 -14
q116 0 116 63z" />
    <glyph glyph-name="fourinferior" unicode="&#x2084;" horiz-adv-x="421" 
d="M267 -32v101h84v-101h63v-74h-63v-94h-84v94h-256v74l257 328h104l-261 -328h156z" />
    <glyph glyph-name="fiveinferior" unicode="&#x2085;" horiz-adv-x="425" 
d="M389 -41v-3q0 -162 -211 -162q-64 0 -156 20l17 70q83 -15 134 -15q130 0 130 87v3q0 33 -12.5 50.5t-68.5 31.5t-167 15l38 240h281l-16 -75h-192l-20 -99q137 -3 190 -39t53 -124z" />
    <glyph glyph-name="sixinferior" unicode="&#x2086;" horiz-adv-x="441" 
d="M331 305l20 -68q-152 -36 -222 -136q54 28 115 28h6q83 0 123 -38t40 -122v-17q0 -83 -46.5 -121t-143.5 -38h-5q-98 0 -144.5 38t-46.5 121v17q5 262 304 336zM218 -133h5q59 0 81 22t22 64v15q0 43 -21.5 65t-81.5 22h-5q-60 0 -82 -22t-22 -65v-15q0 -42 22 -64
t82 -22z" />
    <glyph glyph-name="seveninferior" unicode="&#x2087;" horiz-adv-x="390" 
d="M134 -200h-100l256 422h-263l-14 74h367v-74z" />
    <glyph glyph-name="eightinferior" unicode="&#x2088;" horiz-adv-x="460" 
d="M254 -207h-48q-96 0 -136.5 30.5t-40.5 119.5q0 51 20.5 82.5t56.5 39.5q-60 17 -60 105v3q0 75 36.5 103t123.5 28h48q87 0 123.5 -28t36.5 -103v-3q0 -87 -60 -105q36 -8 56.5 -39.5t20.5 -82.5q0 -89 -40.5 -119.5t-136.5 -30.5zM205 -136h51q51 0 69.5 16t18.5 65
q0 48 -17.5 65t-72.5 17h-48q-55 0 -72.5 -17.5t-17.5 -64.5q0 -49 18 -65t71 -16zM254 237h-48q-44 0 -60 -13.5t-16 -51.5q0 -39 16 -52.5t60 -13.5h48q44 0 60 13.5t16 52.5q0 38 -16 51.5t-60 13.5z" />
    <glyph glyph-name="nineinferior" unicode="&#x2089;" horiz-adv-x="441" 
d="M119 -209l-20 67q150 35 221 137q-56 -29 -114 -29h-6q-83 0 -123 38t-40 122v17q0 83 46 121.5t144 38.5h5q98 0 144 -38.5t46 -121.5v-11q0 -128 -74.5 -216t-228.5 -125zM232 228h-5q-59 0 -81 -22t-22 -64v-15q0 -43 21.5 -65t81.5 -22h5q60 0 82 22t22 65v15
q0 42 -22.5 64t-81.5 22z" />
    <glyph glyph-name="parenleftinferior" unicode="&#x208d;" horiz-adv-x="0" 
 />
    <glyph glyph-name="parenrightinferior" unicode="&#x208e;" horiz-adv-x="0" 
 />
    <glyph glyph-name="Euro" unicode="&#x20ac;" horiz-adv-x="605" 
d="M572 87l17 -70q-73 -27 -159 -27h-12q-136 0 -203.5 50t-76.5 172h-106l12 53h93v52h-105l12 53h93v93q0 147 67 206.5t214 59.5h12q84 0 159 -26l-17 -71q-74 22 -142 22h-12q-107 0 -148.5 -42.5t-41.5 -148.5v-93h167l-15 -53h-152v-52h167l-15 -53h-150
q7 -80 50 -113t138 -33h12q64 0 142 21z" />
    <glyph glyph-name="trademark" unicode="&#x2122;" horiz-adv-x="911" 
d="M228 306h-70v339h-119v65h308v-65h-119v-339zM856 305h-74l-53 269l-94 -269h-60l-95 269l-53 -269h-74l88 405h65l98 -286l100 286h64z" />
    <glyph glyph-name="onethird" unicode="&#x2153;" horiz-adv-x="980" 
d="M617 730l-302 -740h-89l301 740h90zM159 188h-88v421h-44v75h132v-496zM869 130v28q0 63 -94 63h-47l-10 73h51q91 0 91 60v16q0 33 -21.5 46.5t-79.5 13.5q-49 0 -139 -14l-14 69q93 19 156 19q92 0 138 -30t46 -104v-16q0 -41 -19 -63t-57 -31q39 -6 62 -32.5t23 -69.5
v-28q0 -137 -202 -137q-72 0 -155 16l13 72q82 -14 142 -14q116 0 116 63z" />
    <glyph glyph-name="twothirds" unicode="&#x2154;" horiz-adv-x="1147" 
d="M800 730l-301 -740h-90l301 740h90zM395 188h-378v75l52 40l97.5 76.5t67.5 58t50.5 56.5t13.5 44q0 80 -108 80q-73 0 -145 -24l-13 70q82 28 166 28q95 0 142.5 -35.5t47.5 -115.5q0 -27 -13.5 -54.5t-30 -49.5t-55.5 -55.5l-65.5 -54.5l-83.5 -64h255v-75zM1032 130
v28q0 63 -94 63h-47l-10 73h51q91 0 91 60v16q0 33 -21.5 46.5t-79.5 13.5q-49 0 -139 -14l-14 69q93 19 156 19q92 0 138 -30t46 -104v-16q0 -41 -19 -63t-57 -31q39 -6 62 -32.5t23 -69.5v-28q0 -137 -202 -137q-72 0 -155 16l13 72q82 -14 142 -14q116 0 116 63z" />
    <glyph glyph-name="oneeighth" unicode="&#x215b;" horiz-adv-x="1013" 
d="M613 730l-302 -740h-89l301 740h90zM159 188h-88v421h-44v75h132v-496zM814 -7h-48q-96 0 -136.5 30.5t-40.5 119.5q0 51 20.5 82.5t56.5 39.5q-60 17 -60 105v3q0 75 36.5 103t123.5 28h48q87 0 123.5 -28t36.5 -103v-3q0 -87 -60 -105q36 -8 56.5 -39.5t20.5 -82.5
q0 -89 -40.5 -119.5t-136.5 -30.5zM765 64h51q51 0 69.5 16t18.5 65q0 48 -17.5 65t-72.5 17h-48q-55 0 -72.5 -17.5t-17.5 -64.5q0 -49 18 -65t71 -16zM814 437h-48q-44 0 -60 -13.5t-16 -51.5q0 -39 16 -52.5t60 -13.5h48q44 0 60 13.5t16 52.5q0 38 -16 51.5t-60 13.5z
" />
    <glyph glyph-name="threeeighths" unicode="&#x215c;" horiz-adv-x="1162" 
d="M763 730l-302 -740h-90l302 740h90zM288 318v28q0 63 -94 63h-47l-10 73h51q91 0 91 60v16q0 33 -21.5 46.5t-79.5 13.5q-49 0 -139 -14l-14 69q93 19 156 19q92 0 138 -30t46 -104v-16q0 -41 -19 -63t-57 -31q39 -6 62 -32.5t23 -69.5v-28q0 -137 -202 -137
q-72 0 -155 16l13 72q82 -14 142 -14q116 0 116 63zM959 -7h-48q-96 0 -136.5 30.5t-40.5 119.5q0 51 20.5 82.5t56.5 39.5q-60 17 -60 105v3q0 75 36.5 103t123.5 28h48q87 0 123.5 -28t36.5 -103v-3q0 -87 -60 -105q36 -8 56.5 -39.5t20.5 -82.5q0 -89 -40.5 -119.5
t-136.5 -30.5zM910 64h51q51 0 69.5 16t18.5 65q0 48 -17.5 65t-72.5 17h-48q-55 0 -72.5 -17.5t-17.5 -64.5q0 -49 18 -65t71 -16zM959 437h-48q-44 0 -60 -13.5t-16 -51.5q0 -39 16 -52.5t60 -13.5h48q44 0 60 13.5t16 52.5q0 38 -16 51.5t-60 13.5z" />
    <glyph glyph-name="fiveeighths" unicode="&#x215d;" horiz-adv-x="1171" 
d="M772 730l-302 -740h-90l302 740h90zM386 347v-3q0 -162 -211 -162q-64 0 -156 20l17 70q82 -15 134 -15q130 0 130 87v3q0 33 -12.5 50.5t-68.5 31.5t-167 15l38 240h281l-16 -75h-192l-20 -99q137 -3 190 -39t53 -124zM968 -7h-48q-96 0 -136.5 30.5t-40.5 119.5
q0 51 20.5 82.5t56.5 39.5q-60 17 -60 105v3q0 75 36.5 103t123.5 28h48q87 0 123.5 -28t36.5 -103v-3q0 -87 -60 -105q36 -8 56.5 -39.5t20.5 -82.5q0 -89 -40.5 -119.5t-136.5 -30.5zM919 64h51q51 0 69.5 16t18.5 65q0 48 -17.5 65t-72.5 17h-48q-55 0 -72.5 -17.5
t-17.5 -64.5q0 -49 18 -65t71 -16zM968 437h-48q-44 0 -60 -13.5t-16 -51.5q0 -39 16 -52.5t60 -13.5h48q44 0 60 13.5t16 52.5q0 38 -16 51.5t-60 13.5z" />
    <glyph glyph-name="seveneighths" unicode="&#x215e;" horiz-adv-x="1091" 
d="M693 730l-302 -740h-89l301 740h90zM142 188h-100l256 422h-263l-14 74h367v-74zM890 -7h-48q-96 0 -136.5 30.5t-40.5 119.5q0 51 20.5 82.5t56.5 39.5q-60 17 -60 105v3q0 75 36.5 103t123.5 28h48q87 0 123.5 -28t36.5 -103v-3q0 -87 -60 -105q36 -8 56.5 -39.5
t20.5 -82.5q0 -89 -40.5 -119.5t-136.5 -30.5zM841 64h51q51 0 69.5 16t18.5 65q0 48 -17.5 65t-72.5 17h-48q-55 0 -72.5 -17.5t-17.5 -64.5q0 -49 18 -65t71 -16zM890 437h-48q-44 0 -60 -13.5t-16 -51.5q0 -39 16 -52.5t60 -13.5h48q44 0 60 13.5t16 52.5q0 38 -16 51.5
t-60 13.5z" />
    <glyph glyph-name="minus" unicode="&#x2212;" horiz-adv-x="370" 
d="M305 250h-239v82h239v-82z" />
    <glyph glyph-name="approxequal" unicode="&#x2248;" horiz-adv-x="525" 
d="M417 266l58 -28q-17 -52 -52.5 -78t-77.5 -26q-38 0 -91.5 31t-81.5 31q-34 0 -65 -52l-60 29q20 45 51 71t66 31q41 4 98 -28t89 -32q36 0 66 51zM417 436l58 -28q-17 -52 -52.5 -78t-77.5 -26q-38 0 -91.5 31t-81.5 31q-34 0 -65 -52l-60 29q20 45 51 71t66 31
q41 4 98 -28t89 -32q36 0 66 51z" />
    <glyph glyph-name="notequal" unicode="&#x2260;" horiz-adv-x="510" 
d="M488 127h-257l-109 -258l-76 13l103 245h-134v76h166l53 126h-218v76h250l122 287l78 -14l-116 -273h138v-76h-171l-53 -126h224v-76z" />
    <glyph glyph-name="lessequal" unicode="&#x2264;" horiz-adv-x="526" 
d="M502 -60h-456v63h456v-63zM500 113v-71l-452 192v65l452 192v-71l-367 -153z" />
    <glyph glyph-name="greaterequal" unicode="&#x2265;" horiz-adv-x="512" 
d="M502 -60h-456v63h456v-63zM49 42v71l366 154l-366 153v71l451 -192v-65z" />
    <glyph glyph-name="middot" unicode="&#xe000;" horiz-adv-x="209" 
d="M150 243h-84v119h84v-119z" />
    <glyph glyph-name="threeoldstyle" unicode="&#xe001;" horiz-adv-x="532" 
d="M403 -7v41q0 66 -44.5 90t-121.5 24h-51l-12 76h57q159 0 159 112v20q0 60 -36.5 84.5t-123.5 24.5q-81 0 -205 -21l-15 71q130 25 223 25q121 0 183 -41t62 -143v-20q0 -70 -34 -103.5t-91 -44.5q59 -8 98.5 -45t39.5 -109v-41q0 -193 -279 -193q-97 0 -214 22l14 74
q109 -21 200 -21q191 0 191 118z" />
    <glyph glyph-name="fouroldstyle" unicode="&#xe002;" horiz-adv-x="597" 
d="M393 76v157h86v-157h96v-76h-96v-142h-86v142h-387v76l392 501h106l-396 -501h285z" />
    <glyph glyph-name="fiveoldstyle" unicode="&#xe003;" horiz-adv-x="545" 
d="M511 31v-4q0 -65 -23.5 -111.5t-65.5 -72.5t-93 -37.5t-114 -11.5q-87 0 -208 27l18 72q115 -23 185 -23q92 0 152.5 36.5t60.5 120.5v4q0 35 -5 56t-25.5 44.5t-59.5 36.5t-108.5 22t-171.5 11l58 322h377l-17 -75h-287l-39 -179q144 -4 223 -29t111 -74t32 -135z" />
    <glyph glyph-name="sixoldstyle" unicode="&#xe004;" horiz-adv-x="649" 
d="M488 730l22 -67q-249 -72 -346 -244q78 51 181 51h7q124 0 183 -53.5t59 -169.5v-35q0 -113 -65.5 -167.5t-200.5 -54.5h-7q-135 0 -200.5 54.5t-65.5 167.5v48q16 347 433 470zM321 65h7q96 0 137 38.5t41 109.5v34q0 75 -40 111.5t-138 36.5h-7q-97 0 -137.5 -36.5
t-40.5 -111.5v-34q0 -71 41 -109.5t137 -38.5z" />
    <glyph glyph-name="sevenoldstyle" unicode="&#xe005;" horiz-adv-x="541" 
d="M164 -190h-101l381 644h-412l-14 75h517v-75z" />
    <glyph glyph-name="eightoldstyle" unicode="&#xe006;" horiz-adv-x="673" 
d="M349 -9h-49q-132 0 -188.5 44t-56.5 169q0 161 116 186q-91 25 -91 154v4q0 102 50 141.5t170 39.5h49q120 0 170 -39.5t50 -141.5v-4q0 -126 -91 -154q116 -25 116 -186q0 -125 -56.5 -169t-188.5 -44zM299 63h51q88 0 122 29t34 113t-30.5 115t-126.5 31h-49
q-96 0 -126.5 -31t-30.5 -115q0 -85 33.5 -113.5t122.5 -28.5zM349 661h-49q-77 0 -106 -24.5t-29 -89.5q0 -67 30 -92t105 -25h49q75 0 105 25t30 92q0 65 -29 89.5t-106 24.5z" />
    <glyph glyph-name="nineoldstyle" unicode="&#xe007;" horiz-adv-x="649" 
d="M161 -199l-22 67q247 71 346 244q-77 -51 -181 -51h-7q-124 0 -183 53.5t-59 169.5v35q0 113 65.5 167.5t200.5 54.5h7q135 0 200.5 -54.5t65.5 -167.5v-35q0 -9 -1 -13q-14 -347 -432 -470zM328 466h-7q-96 0 -137 -38.5t-41 -109.5v-34q0 -75 40 -111.5t138 -36.5h7
q97 0 137.5 36.5t40.5 111.5v34q0 71 -41 109.5t-137 38.5z" />
    <glyph glyph-name="dollaroldstyle" unicode="&#xe008;" horiz-adv-x="481" 
d="M295 -104h-80v94q-89 2 -185 32l18 72q103 -32 178 -32q149 0 149 123q0 40 -34 72.5t-82.5 58.5t-96.5 55t-82 75.5t-34 105.5q0 44 15.5 77.5t42.5 53t58 29.5t67 14v96h80v-94q63 -4 143 -26l-17 -73q-88 28 -153 28q-66 0 -106 -25.5t-40 -76.5q0 -40 34 -73t82 -59
l96.5 -55t82.5 -75.5t34 -105.5q0 -86 -46.5 -133t-123.5 -59v-99z" />
    <glyph glyph-name="commaaccent" unicode="&#xe009;" horiz-adv-x="169" 
d="M71 -328l-60 20l71 209l83 -23z" />
    <glyph glyph-name="oneoldstyle" unicode="&#xe00a;" horiz-adv-x="261" 
d="M193 0h-86v454h-59v76h145v-530z" />
    <glyph glyph-name="twooldstyle" unicode="&#xe00b;" horiz-adv-x="510" 
d="M474 0h-451v71q194 103 275.5 167t81.5 125q0 109 -142 109q-17 0 -34 -1.5t-37 -5.5t-31.5 -6.5t-36.5 -8.5t-32 -8l-14 65q111 33 185 33q231 0 231 -170q0 -80 -90.5 -162t-221.5 -137h317v-71z" />
    <glyph glyph-name="B.alt" unicode="&#xe00c;" horiz-adv-x="629" 
d="M50 620q0 60 66.5 84.5t216.5 24.5q72 0 118 -13t69.5 -41.5t32 -62t8.5 -86.5q0 -68 -26 -107.5t-62 -48.5q47 -7 76 -50t29 -111v-16q0 -50 -10.5 -85.5t-37.5 -63t-75.5 -41t-121.5 -13.5q-147 0 -215 26t-68 89v515zM487 193v16q0 65 -28.5 93t-95.5 28h-222v-197
q0 -36 44 -51.5t152 -15.5q82 0 116 29.5t34 97.5zM141 592v-186h211q64 0 90.5 27.5t26.5 92.5q0 67 -30 97.5t-102 30.5q-107 0 -151.5 -14.5t-44.5 -47.5z" />
    <glyph glyph-name="D.alt" unicode="&#xe00d;" horiz-adv-x="679" 
d="M346 -10h-14q-145 0 -211 23t-66 80v533q0 57 65.5 80t211.5 23h14q145 0 211 -60t66 -207v-205q0 -148 -66 -207.5t-211 -59.5zM532 257v205q0 106 -41 149t-145 43h-14q-103 0 -144 -9t-41 -31v-509q0 -22 40.5 -30.5t144.5 -8.5h14q104 0 145 42.5t41 148.5z" />
    <glyph glyph-name="E.alt" unicode="&#xe00e;" horiz-adv-x="540" 
d="M490 87l17 -70q-73 -27 -159 -27h-12q-147 0 -214 60t-67 207v206q0 147 67 206.5t214 59.5h12q84 0 159 -26l-17 -71q-74 22 -142 22h-12q-107 0 -148.5 -42.5t-41.5 -148.5v-60h290v-76h-290v-70q0 -106 41.5 -148.5t148.5 -42.5h12q64 0 142 21z" />
    <glyph glyph-name="F.alt" unicode="&#xe00f;" horiz-adv-x="507" 
d="M146 0h-91v463q0 147 67 206.5t214 59.5h12q84 0 159 -26l-17 -71q-74 22 -142 22h-12q-107 0 -148.5 -42.5t-41.5 -148.5v-60h272v-76h-272v-327z" />
    <glyph glyph-name="centoldstyle" unicode="&#xe010;" horiz-adv-x="368" 
d="M260 -116h-77v106q-83 10 -121 60.5t-38 142.5v142q0 181 159 203v114h77v-113q55 -6 89 -15l-15 -70q-53 13 -99 13q-68 0 -97 -37.5t-29 -122.5v-86q0 -83 28.5 -122.5t90.5 -39.5q37 0 106 15l15 -70q-42 -11 -89 -15v-105z" />
    <glyph glyph-name="A.SC" unicode="&#xe011;" horiz-adv-x="433" 
d="M179 536h72l170 -536h-91l-33 124h-162l-33 -124h-90zM216 429l-65 -245h130z" />
    <glyph glyph-name="B.SC" unicode="&#xe012;" horiz-adv-x="506" 
d="M281 0h-226v531h220q54 0 88 -8.5t51 -28.5t23 -44.5t6 -64.5q0 -46 -19 -73t-46 -35q36 -6 57.5 -40t21.5 -79v-11q0 -78 -36 -112.5t-140 -34.5zM365 131v27q0 79 -80 79h-145v-178h141q44 0 64 16t20 56zM140 305h135q44 0 62 19t18 61t-18 60t-62 18h-135v-158z" />
    <glyph glyph-name="C.SC" unicode="&#xe013;" horiz-adv-x="438" 
d="M387 86l17 -69q-60 -24 -130 -24h-10q-116 0 -168.5 44t-52.5 154v143q0 110 52.5 154t168.5 44h10q69 0 130 -23l-17 -70q-60 18 -113 18h-10q-75 0 -102 -27t-27 -96v-143q0 -68 27 -95t102 -27h10q49 0 113 17z" />
    <glyph glyph-name="D.SC" unicode="&#xe014;" horiz-adv-x="505" 
d="M257 0h-202v531h202q64 0 105 -12t62.5 -38.5t29.5 -61t8 -88.5v-136q0 -111 -42.5 -153t-162.5 -42zM370 194v137q0 65 -26 94.5t-101 29.5h-103v-380h103q75 0 101 27.5t26 91.5z" />
    <glyph glyph-name="E.SC" unicode="&#xe015;" horiz-adv-x="431" 
d="M393 0h-338v531h338v-76h-253v-144h213v-76h-213v-160h253v-75z" />
    <glyph glyph-name="F.SC" unicode="&#xe016;" horiz-adv-x="393" 
d="M139 0h-84v531h335v-76h-251v-159h218v-76h-218v-220z" />
    <glyph glyph-name="G.SC" unicode="&#xe017;" horiz-adv-x="492" 
d="M355 88v152h85v-201q-75 -46 -164 -46h-12q-115 0 -165.5 44t-50.5 154v143q0 110 50.5 154t165.5 44h10q88 0 163 -33l-18 -70q-76 28 -145 28h-10q-71 0 -100 -28t-29 -95v-143q0 -66 30 -94t99 -28h12q47 0 79 19z" />
    <glyph glyph-name="H.SC" unicode="&#xe018;" horiz-adv-x="521" 
d="M470 0h-85v231h-249v-231h-85v531h85v-224h249v224h85v-531z" />
    <glyph glyph-name="I.SC" unicode="&#xe019;" horiz-adv-x="192" 
d="M136 0h-85v530h85v-530z" />
    <glyph glyph-name="J.SC" unicode="&#xe01a;" horiz-adv-x="192" 
d="M-64 -178l16 72q32 -8 55 -8q27 0 35.5 16.5t8.5 62.5v566h85v-567q0 -85 -24.5 -121.5t-85.5 -36.5q-32 0 -90 16z" />
    <glyph glyph-name="K.SC" unicode="&#xe01b;" horiz-adv-x="476" 
d="M140 0h-85v531h85v-245l217 245h98l-227 -255l240 -276h-98l-230 265v-265z" />
    <glyph glyph-name="L.SC" unicode="&#xe01c;" horiz-adv-x="396" 
d="M393 0h-338v531h85v-456h253v-75z" />
    <glyph glyph-name="M.SC" unicode="&#xe01d;" horiz-adv-x="743" 
d="M727 0h-91l-80 378l-142 -385h-85l-144 385l-78 -378h-91l126 530h73l156 -429l157 429h73z" />
    <glyph glyph-name="N.SC" unicode="&#xe01e;" horiz-adv-x="510" 
d="M51 531h83l242 -387v387h83v-531h-83l-242 383v-383h-83v531z" />
    <glyph glyph-name="O.SC" unicode="&#xe01f;" horiz-adv-x="528" 
d="M269 -7h-10q-113 0 -164.5 44.5t-51.5 153.5v143q0 110 51 154t165 44h10q113 0 164.5 -44.5t51.5 -153.5v-143q0 -109 -51.5 -153.5t-164.5 -44.5zM393 191v143q0 68 -26 95.5t-98 27.5h-10q-72 0 -98 -27.5t-26 -95.5v-143q0 -68 26 -95t98 -27h10q72 0 98 27t26 95z
" />
    <glyph glyph-name="P.SC" unicode="&#xe020;" horiz-adv-x="443" 
d="M140 0h-85v530h187q104 0 149 -33.5t45 -130.5q0 -96 -45 -130t-149 -34h-102v-202zM140 274h102q58 0 79.5 18.5t21.5 73.5t-21.5 74t-79.5 19h-102v-185z" />
    <glyph glyph-name="Q.SC" unicode="&#xe021;" horiz-adv-x="504" 
d="M450 385v-240q0 -70 -37 -107t-114 -45q1 -42 9.5 -55t32.5 -13q21 0 51 5l7 -67q-47 -8 -73 -8q-61 0 -87 26t-26 96v15q-81 6 -119.5 43.5t-38.5 109.5v240q0 80 48 117.5t149 37.5q102 0 150 -37.5t48 -117.5zM366 146v239q0 92 -114 92q-113 0 -113 -92v-239
q0 -93 113 -93q114 0 114 93z" />
    <glyph glyph-name="R.SC" unicode="&#xe022;" horiz-adv-x="456" 
d="M131 0h-85v531h187q102 0 145.5 -35t43.5 -132q0 -74 -25 -111t-79 -48l110 -205h-97l-99 198h-101v-198zM131 269h102q57 0 78.5 19.5t21.5 75.5t-21.5 76t-78.5 20h-102v-191z" />
    <glyph glyph-name="S.SC" unicode="&#xe023;" horiz-adv-x="387" 
d="M16 17l17 72q85 -26 145 -26q99 0 99 75q0 27 -25 48.5t-61.5 39t-72.5 38.5t-61 56t-25 81q0 41 16.5 70t44.5 43t57 20t63 6q64 0 138 -21l-16 -72q-62 20 -114 20q-97 0 -97 -63q0 -27 25.5 -48.5t61.5 -39t72 -38.5t61.5 -56t25.5 -81q0 -78 -52.5 -113.5
t-131.5 -35.5q-86 0 -170 25z" />
    <glyph glyph-name="T.SC" unicode="&#xe024;" horiz-adv-x="417" 
d="M251 0h-85v455h-160v76h405v-76h-160v-455z" />
    <glyph glyph-name="U.SC" unicode="&#xe025;" horiz-adv-x="512" 
d="M370 146v384h84v-385q0 -80 -48 -117.5t-150 -37.5t-150 37.5t-48 117.5v385h84v-384q0 -93 114 -93t114 93z" />
    <glyph glyph-name="V.SC" unicode="&#xe026;" horiz-adv-x="478" 
d="M276 -7h-74l-187 537h96l128 -421l128 421h96z" />
    <glyph glyph-name="W.SC" unicode="&#xe027;" horiz-adv-x="746" 
d="M563 -4h-71l-118 381l-118 -381h-71l-175 534h95l113 -404l120 406h71l122 -406l112 404h95z" />
    <glyph glyph-name="X.SC" unicode="&#xe028;" horiz-adv-x="437" 
d="M425 0h-98l-109 197l-109 -197h-98l148 265l-147 265h97l109 -201l109 201h98l-148 -265z" />
    <glyph glyph-name="Y.SC" unicode="&#xe029;" horiz-adv-x="455" 
d="M270 0h-85v190l-177 341h98l122 -263l121 263h99l-178 -341v-190z" />
    <glyph glyph-name="Z.SC" unicode="&#xe02a;" horiz-adv-x="412" 
d="M399 0h-389v75l272 380h-253v75h361v-75l-272 -380h281v-75z" />
    <glyph glyph-name="d.stem" unicode="&#xe02b;" horiz-adv-x="509" 
d="M444 0h-84v48q-71 -58 -184 -58q-33 0 -56.5 10t-36 25t-19 41t-8 47.5t-1.5 56.5v190q0 35 1.5 56.5t8 47.5t19 41t36 25t56.5 10q48 0 98 -21t86 -51v277h84v-745zM139 360v-190q0 -29 1.5 -45.5t6.5 -35.5t17.5 -27.5t32.5 -8.5q59 0 104.5 14.5t58.5 32.5v318
q-75 59 -163 59q-20 0 -32.5 -8.5t-17.5 -27.5t-6.5 -35.5t-1.5 -45.5z" />
    <glyph glyph-name="m.stem" unicode="&#xe02c;" horiz-adv-x="761" 
d="M698 0h-85v360q0 30 -1 45.5t-6 35t-17.5 28t-32.5 8.5q-47 0 -84 -22t-49 -41v-414h-85v360q0 30 -1 45.5t-6 35t-17.5 28t-32.5 8.5q-47 0 -84 -22t-49 -41v-414h-85v527h85v-57q68 70 154 70q93 0 112 -78q72 78 163 78q33 0 56 -10.5t35.5 -25.5t19.5 -41.5t8.5 -49
t1.5 -57.5v-356z" />
    <glyph glyph-name="zerooldstyle" unicode="&#xe02d;" horiz-adv-x="595" 
d="M540 385v-240q0 -80 -58.5 -117.5t-183.5 -37.5t-184 37.5t-59 117.5v240q0 80 59 117.5t184 37.5t183.5 -37.5t58.5 -117.5zM456 146v239q0 46 -37 69t-121 23q-159 0 -159 -92v-239q0 -93 159 -93q158 0 158 93z" />
    <glyph glyph-name="v.alt" unicode="&#xe030;" horiz-adv-x="441" 
d="M257 -12h-80l-151 539h91l93 -394l24 31l92 363h91z" />
    <glyph glyph-name="a.ital" unicode="&#xe031;" horiz-adv-x="477" 
d="M449 0h-84v48q-71 -58 -184 -58q-33 0 -56.5 10.5t-36 25.5t-19 41.5t-8 49t-1.5 57.5v182q0 36 1.5 57.5t8.5 48.5t20.5 42t38 25.5t60.5 10.5q108 0 184 -26t76 -57v-457zM365 100v329q0 17 -49 32.5t-114 15.5q-20 0 -32.5 -9.5t-17.5 -31t-6.5 -40t-1.5 -51.5v-175
q0 -29 1.5 -45.5t6.5 -35.5t17.5 -27.5t32.5 -8.5q61 0 105.5 14.5t57.5 32.5z" />
    <glyph glyph-name="f.ital" unicode="&#xe032;" horiz-adv-x="301" 
d="M93 -37v499h-81v68h82v28q0 113 40 156t134 32q37 -3 68 -15l-18 -58q-39 13 -68 13q-46 0 -59.5 -29.5t-13.5 -98.5v-28h115v-68h-115v-499q0 -113 -40 -156t-134 -32q-32 3 -68 15l18 58q39 -13 68 -13q46 0 59 29.5t13 98.5z" />
    <glyph glyph-name="e.ital" unicode="&#xe033;" horiz-adv-x="486" 
d="M426 88l16 -62q-84 -36 -179 -36q-116 0 -162.5 55t-46.5 168v95q0 136 53 184t184 48q90 0 120.5 -40.5t30.5 -113.5v-33q0 -140 -304 -143v-5q0 -70 25.5 -109t99.5 -39q82 0 163 31zM362 365v20q0 47 -12 69.5t-51 22.5q-86 0 -123.5 -27.5t-37.5 -106.5v-86
q119 6 171.5 33t52.5 75z" />
    <glyph glyph-name="n.stem" unicode="&#xe034;" horiz-adv-x="515" 
d="M453 0h-85v360q0 30 -1 45.5t-6 35t-17.5 28t-32.5 8.5q-56 0 -99.5 -21t-63.5 -42v-414h-85v527h85v-57q86 70 184 70q33 0 56 -10.5t35.5 -25.5t19.5 -41.5t8.5 -49t1.5 -57.5v-356z" />
    <glyph glyph-name="p.stem" unicode="&#xe035;" horiz-adv-x="508" 
d="M148 -215h-85v743h85v-60q36 30 86 51t98 21q33 0 56 -10t35.5 -25t19.5 -41t8.5 -48t1.5 -56v-190q0 -34 -1.5 -56t-8.5 -48t-19.5 -41t-35.5 -25t-56 -10q-113 0 -184 58v-263zM368 170v190q0 30 -1 46t-6 35t-17.5 27.5t-32.5 8.5q-46 0 -90.5 -18t-72.5 -41v-318
q13 -18 58 -32.5t105 -14.5q20 0 32.5 8.5t17.5 27.5t6 35t1 46z" />
    <glyph glyph-name="r.stem" unicode="&#xe036;" horiz-adv-x="350" 
d="M148 0h-85v528h85v-86q18 40 57.5 69t86.5 29q39 0 64 -11l-26 -75q-31 11 -55 11q-52 0 -89.5 -39.5t-37.5 -71.5v-354z" />
    <glyph glyph-name="u.stem" unicode="&#xe037;" horiz-adv-x="517" 
d="M453 0h-85v60q-86 -70 -184 -70q-33 0 -56 10.5t-35.5 25.5t-19.5 41.5t-8.5 49t-1.5 57.5v353h85v-357q0 -30 1 -45.5t6 -35t17.5 -28t32.5 -8.5q56 0 99.5 21t63.5 42v411h85v-527z" />
    <glyph glyph-name="W.alt" unicode="&#xe038;" horiz-adv-x="894" 
d="M342 -10h-72l-239 729h95l181 -607l180 607h96l-93 -281l98 -326l180 607h96l-241 -729h-72l-105 315z" />
    <glyph glyph-name="a.stem" unicode="&#xe039;" horiz-adv-x="507" 
d="M444 0h-84v48q-71 -58 -184 -58q-33 0 -56.5 10.5t-36 25.5t-19 41.5t-8 49t-1.5 57.5v182q0 36 1.5 57.5t8.5 48.5t20.5 42t38 25.5t60.5 10.5q108 0 184 -26t76 -57v-457zM360 100v329q0 17 -49 32.5t-114 15.5q-20 0 -32.5 -9.5t-17.5 -31t-6.5 -40t-1.5 -51.5v-175
q0 -29 1.5 -45.5t6.5 -35.5t17.5 -27.5t32.5 -8.5q61 0 105.5 14.5t57.5 32.5z" />
    <glyph glyph-name="a.2" unicode="&#xe03a;" horiz-adv-x="507" 
d="M371 530h85v-529h-85v61q-35 -30 -85.5 -51t-98.5 -21q-33 0 -56 10t-35.5 25t-19.5 41t-8.5 48t-1.5 56v190q0 34 1.5 56t8.5 48t19.5 41t35.5 25t56 10q115 0 184 -58v48zM151 360v-190q0 -29 1.5 -45.5t6.5 -35.5t17.5 -27.5t32.5 -8.5q45 0 89.5 18t72.5 41v318
q-13 18 -58 32.5t-104 14.5q-20 0 -32.5 -8.5t-17.5 -27.5t-6.5 -35.5t-1.5 -45.5z" />
    <glyph glyph-name="a.1" unicode="&#xe03b;" horiz-adv-x="483" 
d="M339 0v29q-94 -39 -174 -39q-75 0 -101.5 43t-26.5 123q0 75 26.5 117t101.5 42q93 0 174 -38v79q0 62 -24 89t-82 27q-46 0 -139 -24l-17 62q90 30 168 30q97 0 137.5 -46.5t40.5 -137.5v-356h-84zM339 84v135q0 15 -52.5 27.5t-95.5 12.5q-69 0 -69 -104
q0 -53 15 -80.5t54 -27.5q52 0 100 11t48 26z" />
    <glyph glyph-name="b.stem" unicode="&#xe03c;" horiz-adv-x="507" 
d="M147 0h-84v745h84v-277q36 30 86 51t98 21q33 0 56.5 -10t36 -25t19 -41t8 -47.5t1.5 -56.5v-190q0 -35 -1.5 -56.5t-8 -47.5t-19 -41t-36 -25t-56.5 -10q-113 0 -184 58v-48zM368 170v190q0 29 -1.5 45.5t-6.5 35.5t-17.5 27.5t-32.5 8.5q-88 0 -163 -59v-318
q14 -18 59 -32.5t104 -14.5q20 0 32.5 8.5t17.5 27.5t6.5 35.5t1.5 45.5z" />
    <glyph glyph-name="g.stem" unicode="&#xe03d;" horiz-adv-x="506" 
d="M360 -24v72q-71 -58 -184 -58q-33 0 -56.5 10t-36 25t-19 41t-8 47.5t-1.5 56.5v190q0 35 1.5 56.5t8 47.5t19 41t36 25t56.5 10q48 0 98 -21t86 -51v60h84v-552q0 -114 -25.5 -159.5t-105.5 -45.5q-40 0 -83.5 7.5t-73 15.5t-84.5 25l20 62q137 -42 209 -42q39 0 49 31
t10 106zM139 360v-190q0 -29 1.5 -45.5t6.5 -35.5t17.5 -27.5t32.5 -8.5q59 0 104.5 14.5t58.5 32.5v318q-75 59 -163 59q-20 0 -32.5 -8.5t-17.5 -27.5t-6.5 -35.5t-1.5 -45.5z" />
    <glyph glyph-name="q.stem" unicode="&#xe03e;" horiz-adv-x="507" 
d="M444 -215h-84v263q-71 -58 -184 -58q-33 0 -56.5 10t-36 25t-19 41t-8 47.5t-1.5 56.5v190q0 35 1.5 56.5t8 47.5t19 41t36 25t56.5 10q48 0 98 -21t86 -51v60h84v-743zM139 360v-190q0 -29 1.5 -45.5t6.5 -35.5t17.5 -27.5t32.5 -8.5q59 0 104.5 14.5t58.5 32.5v318
q-75 59 -163 59q-20 0 -32.5 -8.5t-17.5 -27.5t-6.5 -35.5t-1.5 -45.5z" />
    <glyph glyph-name="i.alt" unicode="&#xe03f;" horiz-adv-x="209" 
d="M147 530v-530h-85v530h85zM147 633h-84v112h84v-112z" />
    <glyph glyph-name="l.alt" unicode="&#xe040;" horiz-adv-x="208" 
d="M146 745v-745h-84v745h84z" />
    <glyph glyph-name="s_t" unicode="&#xfb06;" horiz-adv-x="707" 
d="M18 16l16 65q81 -24 142 -24q109 0 109 80q0 28 -26 49.5t-63.5 37.5t-75 35.5t-63.5 54.5t-26 83q0 42 16 71.5t43.5 44.5t55.5 21t60 6q22 0 95 -5t138 -5v114h85v-114h125v-68h-125v-342q0 -54 41 -54q34 0 91 23l20 -69q-76 -30 -126 -30q-51 0 -81 29.5t-30 93.5
v349q-52 1 -130.5 5t-98.5 4q-96 0 -96 -66q0 -28 26 -49.5t63.5 -38t75 -36t63.5 -54t26 -82.5q0 -81 -53.5 -118t-134.5 -37q-74 0 -162 26z" />
    <glyph glyph-name="a.001" horiz-adv-x="483" 
d="M339 277v79q0 62 -24 89t-82 27q-46 0 -139 -24l-17 62q90 30 168 30q97 0 137.5 -46.5t40.5 -137.5v-296q0 -36 -84.5 -53t-165.5 -17q-42 0 -70 12.5t-42 37t-19 51.5t-5 65q0 75 26.5 117t101.5 42q93 0 174 -38zM339 78v141q0 15 -52.5 27.5t-95.5 12.5
q-69 0 -69 -104q0 -53 15 -80.5t54 -27.5q55 0 101.5 8t46.5 23z" />
    </font>
</defs>
</svg>
